<svg height='100px' width='100px'  fill="#000000" xmlns="http://www.w3.org/2000/svg" xmlns:xlink="http://www.w3.org/1999/xlink" version="1.1" x="0px" y="0px" viewBox="-183.475 122.89 432.95 316.22" enable-background="new -183.475 122.89 432.95 316.22" xml:space="preserve"><g><path d="M-130.139,288.784c0.217-0.462,0.438-0.932,0.656-1.396l-6.179-6.178c-10.404,22.017-22.079,43.761-47.813,54.273   l5.358,5.358C-151.384,334.194-141.926,313.992-130.139,288.784z"></path><path d="M-108.926,309.999c0.216-0.463,0.435-0.933,0.654-1.399l-6.176-6.175c-10.404,22.016-22.084,43.758-47.816,54.27   l5.361,5.362C-130.172,355.407-120.713,335.206-108.926,309.999z"></path><path d="M178.741,209.485c26.16,9.49,47.131,17.085,70.734,2.887v-7.732c-9.295,3.903-18.329,5.467-27.16,5.467   c-17.425-0.001-34.066-6.038-50.396-11.963c-29.662-10.761-60.301-21.851-102.445-4.01v-21.482   c34.813-12.526,63.458-8.082,87.814-0.653v-39.012c-13.73-4.577-28.104-8.27-43.995-8.27c-14.512,0-28.903,3.081-43.819,9.398   v-1.225c0-5.523-4.478-10-10-10c-5.523,0-10,4.477-10,10v153.186l-102.07-101.558c-3.906-3.905-11.238-3.905-15.143,0   c-3.906,3.905-3.906,10.237,0,14.143l2.704,2.678c-34.514,14.419-49.73,37.141-61.505,60.71l27.589,27.589   c11.831-22.217,28.698-45.326,61.413-61.077l15.246,15.094c-41.555,17.248-55.27,46.482-68.518,74.816   c-11.088,23.713-22.496,48.104-50.241,59.438l5.46,5.46c26.73-6.649,36.189-26.851,47.977-52.058   c12.813-27.401,28.464-60.826,71.535-81.505l15.25,15.097c-41.673,17.239-55.403,46.512-68.668,74.88   c-11.088,23.713-22.497,48.104-50.242,59.438l6.135,6.135c26.833-6.645,36.455-26.73,48.459-51.788   c13.026-27.189,28.939-60.365,72.095-80.963l42.525,42.1V429.11c0,5.523,4.477,10,10,10c5.522,0,10-4.477,10-10v-94.606   l62.929,62.3c1.953,1.952,4.512,2.929,7.071,2.929c2.559,0,5.118-0.977,7.071-2.929c3.905-3.905,3.905-10.237,0-14.142   l-77.071-76.685v-70.848c14.918-5.412,29.581-8.06,44.468-8.06c24.775,0,45.958,7.46,64.645,14.042   c15.197,5.352,29.55,10.406,43.145,10.406c9.802,0,18.727-2.572,27.742-8.043v-8.694c-9.295,3.902-18.329,5.467-27.16,5.467   c-17.424,0-34.065-6.037-50.395-11.961c-29.663-10.761-60.301-21.851-102.445-4.01v-21.482   C115.068,186.389,150.084,199.089,178.741,209.485z"></path><path d="M249.473,152.23v-7.572c-8.754,3.682-17.774,5.491-27.253,5.491c-15.391,0-29.873-4.665-44.932-10.066v8.736   c0.482,0.174,0.972,0.35,1.451,0.524C204.899,158.833,225.871,166.429,249.473,152.23z"></path><path d="M177.289,170.082v8.735c0.485,0.176,0.97,0.352,1.451,0.526c26.158,9.489,47.13,17.085,70.734,2.886v-7.591   c-9.295,3.902-18.329,5.467-27.16,5.467C206.795,180.105,191.899,175.316,177.289,170.082z"></path></g></svg>