<svg height='100px' width='100px'  fill="#000000" xmlns="http://www.w3.org/2000/svg" viewBox="0 0 80 80" x="0px" y="0px"><title>02_energy_cycle</title><g data-name="Layer 3"><path d="M63.82,47.68a1,1,0,0,0-1.28.59,24,24,0,0,1-46.4-5.74l4.07,4a1,1,0,0,0,1.41-1.42l-5.9-5.87a1,1,0,0,0-.14-.09,1,1,0,0,0-.2-.13l-.15,0A1,1,0,0,0,15,39h-.08l-.09,0a1,1,0,0,0-.29.09l-.08.05a1,1,0,0,0-.24.22l0,0L9.4,46.23A1,1,0,1,0,11,47.38l3.13-4.45a26,26,0,0,0,50.24,6A1,1,0,0,0,63.82,47.68Z"></path><path d="M69,32.62,65.83,37.1a26,26,0,0,0-50.47-5.41,1,1,0,1,0,1.9.64,24,24,0,0,1,46.6,5.12l-4-4a1,1,0,0,0-1.41,1.42l5.86,5.84A1,1,0,0,0,65,41h.09a1,1,0,0,0,.18-.06l.14,0a1,1,0,0,0,.22-.15l.09-.08a1,1,0,0,0,.1-.09l4.79-6.81A1,1,0,0,0,69,32.62Z"></path></g></svg>