<svg height='100px' width='100px'      
 xmlns="http://www.w3.org/2000/svg"
  xmlns:xlink="http://www.w3.org/1999/xlink"
   version="1.1" x="0px" y="0px" viewBox="0 0 100 100" 
   enable-background="new 0 0 100 100" xml:space="preserve"><g><g>
   <path  d="M83.8,79.1c0.2-0.2,0.3-0.3,0.5-0.5c0.6-0.5,0.8-1.2,0.8-1.8c0-0.6-0.2-1.2-0.8-1.8    c-0.2-0.2-0.3-0.3-0.5-0.5C85.5,75.4,85.5,78.3,83.8,79.1z"></path></g><circle      cx="35.1" cy="62.8" r="3.6"></circle><circle      cx="52.4" cy="47.3" r="2.4"></circle><circle      cx="37.4" cy="47.3" r="4"></circle><circle      cx="69.2" cy="47.7" r="3.9"></circle><circle      cx="52.4" cy="62.1" r="6.4"></circle><circle      cx="69.2" cy="62.8" r="2.5"></circle><circle      cx="36.3" cy="32.3" r="3.6"></circle><circle      cx="53.6" cy="31.6" r="5"></circle><circle      cx="70.4" cy="32.3" r="2.5"></circle><g><g><path      d="M23.8,15.4c-0.6-0.2-1.2-0.2-1.8,0c0,0,0,0,0,0c-0.3,0.1-0.5,0.2-0.7,0.4c0.5-0.5,1.1-0.7,1.7-0.7     C23.3,15.2,23.6,15.2,23.8,15.4z"></path></g><g><path      d="M24.6,15.8c-0.2-0.2-0.5-0.3-0.7-0.4c0,0,0,0-0.1,0c-0.6-0.2-1.2-0.2-1.8,0c0.3-0.2,0.6-0.2,0.9-0.2     C23.5,15.1,24.1,15.3,24.6,15.8z"></path></g></g><g><g><path      d="M85,76.9c0,0.6-0.2,1.2-0.8,1.8c-0.2,0.2-0.3,0.3-0.5,0.5c-1.7,1.7-3.4,3.4-5.2,5     c-2.3,2.2-5.8-1.3-3.5-3.5c0.4-0.4,0.9-0.8,1.3-1.3H23.5c-0.2,0-0.5,0-0.7-0.1c-1.2-0.1-2.4-0.9-2.4-2.4v-53     c-0.4,0.4-0.8,0.9-1.3,1.3c-2.2,2.3-5.8-1.2-3.5-3.5c1.8-1.8,3.6-3.7,5.3-5.5c0.1-0.1,0.1-0.1,0.2-0.2c0,0,0.1-0.1,0.1-0.1     c0.2-0.2,0.5-0.3,0.7-0.4c0,0,0,0,0,0c0.6-0.2,1.2-0.2,1.8,0c0,0,0,0,0.1,0c0.2,0.1,0.5,0.2,0.7,0.4c0,0,0.1,0,0.1,0.1     c0.1,0.1,0.1,0.1,0.2,0.2c1.8,1.8,3.6,3.6,5.3,5.5c2.3,2.3-1.3,5.8-3.5,3.5c-0.4-0.4-0.8-0.9-1.3-1.3v50.6h50.9l-1.3-1.3     c-2.3-2.2,1.2-5.8,3.5-3.5c1.7,1.7,3.4,3.4,5.2,5c0.2,0.2,0.3,0.3,0.5,0.5C84.8,75.6,85.1,76.3,85,76.9z"></path></g></g></g></svg>