<svg height='100px' width='100px'  fill="#000000" xmlns="http://www.w3.org/2000/svg" xmlns:xlink="http://www.w3.org/1999/xlink" xml:space="preserve" version="1.0" style="shape-rendering:geometricPrecision;text-rendering:geometricPrecision;image-rendering:optimizeQuality;" viewBox="0 0 10000 10000" x="0px" y="0px" fill-rule="evenodd" clip-rule="evenodd"><defs><style type="text/css">
   
    .fil0 {fill:#000000;fill-rule:nonzero}
   
  </style></defs><g><path class="fil0" d="M7981 5730c-973,974 -2522,1022 -3553,145l-2810 2811c-201,200 -505,-105 -305,-305l2811 -2810c-875,-1031 -826,-2579 147,-3551 1024,-1025 2686,-1025 3710,0 1025,1024 1025,2686 0,3710zm-158 -158c937,-937 937,-2457 0,-3394 -937,-937 -2456,-937 -3394,0 -937,937 -937,2457 0,3394 938,937 2457,937 3394,0z"></path></g></svg>