<svg height='100px' width='100px'  fill="#000000" xmlns="http://www.w3.org/2000/svg" data-name="Layer 1" viewBox="0 0 88 88" x="0px" y="0px"><title>Zoom</title><path d="M70.21,32.53H66.94V21.06H55.47V17.79H70.21Z"></path><path d="M46,39.69,67.43,18.27l2.32,2.32L48.33,42ZM32.53,70.21H17.79V55.47h3.27V66.94H32.53Z"></path><path d="M18.26,67.41,39.67,46,42,48.32,20.58,69.73Zm9.36-31.6H24.34V24.34H35.81v3.28H27.62Zm-3.28,3.27h3.28v9.84H24.34ZM39.08,24.34h9.84v3.28H39.08ZM63.66,63.66H52.19V60.38h8.19V52.19h3.28ZM60.38,39.08h3.28v9.84H60.38Zm-21.3,21.3h9.84v3.28H39.08Z"></path></svg>