<svg height='100px' width='100px'  fill="#000000" xmlns="http://www.w3.org/2000/svg" xmlns:xlink="http://www.w3.org/1999/xlink" version="1.1" x="0px" y="0px" viewBox="0 0 100 100" enable-background="new 0 0 100 100" xml:space="preserve"><path d="M77.705,78.417l-2.152-0.922c-0.271-0.135-0.349,0.146-0.349,0.23v1.535c0,0.1,0.06,0.19,0.151,0.23l2.152,0.922  c0.032,0.013,0.32,0.042,0.349-0.23v-1.535C77.856,78.546,77.797,78.456,77.705,78.417z M77.356,79.803l-1.652-0.708v-0.991  l1.652,0.708V79.803z M77.705,85.746l-2.152-0.922c-0.271-0.135-0.349,0.146-0.349,0.23v1.535c0,0.1,0.06,0.19,0.151,0.23  l2.152,0.922c0.032,0.013,0.32,0.042,0.349-0.23v-1.535C77.856,85.876,77.797,85.786,77.705,85.746z M77.356,87.132l-1.652-0.708  v-0.991l1.652,0.708V87.132z M54.477,43.99l-2.153-0.922c-0.262-0.021-0.349,0.146-0.349,0.23v1.535c0,0.1,0.06,0.19,0.151,0.23  l2.153,0.923c0.251,0.092,0.349-0.146,0.349-0.23V44.22C54.629,44.12,54.569,44.03,54.477,43.99z M54.129,45.377l-1.653-0.709  v-0.991l1.653,0.708V45.377z M41.197,45.627l1.44-0.5c0.101-0.035,0.168-0.13,0.168-0.236v-1.229c0-0.081-0.039-0.157-0.105-0.204  c-0.066-0.047-0.151-0.061-0.227-0.033l-1.44,0.5c-0.101,0.035-0.168,0.13-0.168,0.236v1.229  C40.865,45.472,40.984,45.672,41.197,45.627z M41.365,44.34l0.94-0.326v0.699l-0.94,0.326V44.34z M41.197,51.569l1.44-0.5  c0.101-0.035,0.168-0.13,0.168-0.236v-1.229c0-0.081-0.039-0.157-0.105-0.204c-0.066-0.048-0.151-0.06-0.227-0.033l-1.44,0.5  c-0.101,0.035-0.168,0.13-0.168,0.236v1.229C40.865,51.414,40.984,51.641,41.197,51.569z M41.365,50.281l0.94-0.326v0.7l-0.94,0.326  V50.281z M88.283,53.362l-2.755-8.695l8.651-17.609c0.419-0.852,0.181-1.88-0.568-2.461L73.015,8.605  c-0.45-0.349-1.026-0.49-1.587-0.388c-0.561,0.103-1.05,0.439-1.347,0.925l-6.002,9.832L61.932,7.807  c-0.104-0.545-0.432-1.022-0.902-1.317c-0.471-0.294-1.043-0.381-1.578-0.237L20.936,16.555c-0.98,0.262-1.608,1.216-1.463,2.22  l2.187,15.028L7.334,35.844c-0.698,0.1-1.293,0.56-1.564,1.211c-0.271,0.651-0.179,1.397,0.242,1.963l15.917,21.376v2.907  c-0.967-0.218-2.002-0.339-3.086-0.339c-5.479,0-9.77,2.993-9.77,6.813v16.893c0,3.82,4.291,6.813,9.77,6.813  c5.478,0,9.769-2.993,9.769-6.813v-9.453l11.741,14.49c0.396,0.488,1.189,0.92,2.102,0.658l0.002,0.006l26.799-7.665v0.268  c0,4.959,5.507,8.843,12.536,8.843s12.536-3.884,12.536-8.843V60.954C94.327,57.685,91.926,54.892,88.283,53.362z M90.327,71.537  c-1.576,1.932-4.847,3.298-8.536,3.298s-6.96-1.366-8.536-3.298v-5.788c1.961,1.719,5.024,2.811,8.536,2.811  s6.575-1.092,8.536-2.811V71.537z M73.255,74.306c2.095,1.559,5.115,2.529,8.536,2.529s6.441-0.97,8.536-2.529v5.174  c-1.576,1.932-4.847,3.298-8.536,3.298s-6.96-1.366-8.536-3.298V74.306z M90.327,60.954v1.502c-0.962,2.323-4.476,4.104-8.536,4.104  s-7.574-1.781-8.536-4.104v-1.502c0-2.291,3.506-4.843,8.536-4.843S90.327,58.663,90.327,60.954z M81.791,52.11  c-6.107,0-11.916,3.14-12.536,7.96v5.307l-18.743,5.389l-5.665-14.726l36.759-10.513l2.121,6.694  C83.095,52.155,82.452,52.11,81.791,52.11z M26.151,35.911l0.62-0.175v1.471l-0.62-0.702V35.911z M27.271,35.595l0.62-0.175v3.055  l-0.62-0.702V35.595z M28.391,35.278l0.461-0.13l-0.074,4.33l-0.387-0.438V35.278z M81.867,43.373l-0.511,0.146v-0.625  L81.867,43.373z M80.855,43.662l-0.459,0.131v-1.797l0.459,0.43V43.662z M79.896,43.936l-0.459,0.131v-2.969l0.459,0.43V43.936z   M78.937,44.211l-0.461,0.132V40.2l0.461,0.431V44.211z M77.976,44.486l-0.461,0.132V39.3l0.461,0.431V44.486z M77.041,44.753  l-0.486,0.139v-6.491l0.461,0.431v5.86C77.015,44.716,77.035,44.731,77.041,44.753z M76.055,45.035l-0.461,0.132v-7.666l0.461,0.431  V45.035z M75.094,45.31l-0.461,0.132v-8.84l0.461,0.431V45.31z M74.133,45.585l-0.305,0.087v-9.823l0.305,0.285V45.585z   M59.582,49.746c-4.397-0.254-8.069-1.818-9.727-3.934v-7.406c1.952,2.343,6.082,3.928,10.986,3.928  c4.904,0,9.034-1.586,10.986-3.93v7.839L59.582,49.746z M54.013,51.339l-1.689-0.723c-0.277-0.069-0.349,0.146-0.349,0.23v1.076  l-2.12,0.606v-5.235c1.625,1.51,4.164,2.647,7.212,3.172L54.013,51.339z M53.251,51.557l-0.775,0.222v-0.554L53.251,51.557z   M71.828,35.087v1.395c-1.006,2.761-5.547,4.852-10.986,4.852c-5.437,0-9.978-2.089-10.986-4.849v-1.399  c0-3.247,5.031-5.99,10.986-5.99C68.56,29.097,71.828,33.382,71.828,35.087z M63.04,27.224v-1.474l0.492,0.461v1.066  C63.371,27.256,63.204,27.242,63.04,27.224z M62.54,25.626v1.544c-0.238-0.019-0.484-0.027-0.729-0.039v-1.3L62.54,25.626z   M64.032,27.349v-0.67l0.892,0.835C64.633,27.453,64.336,27.398,64.032,27.349z M61.311,25.973v1.141  c-0.158-0.003-0.309-0.017-0.47-0.017c-0.088,0-0.172,0.007-0.259,0.008v-0.926L61.311,25.973z M60.083,27.12  c-0.244,0.008-0.489,0.015-0.729,0.031v-0.624l0.729-0.206V27.12z M58.854,27.196c-0.244,0.022-0.489,0.041-0.728,0.071v-0.394  l0.728-0.206V27.196z M57.627,27.344c-0.244,0.037-0.491,0.07-0.729,0.115V27.22l0.729-0.206V27.344z M56.398,27.57  c-0.245,0.053-0.491,0.104-0.729,0.166v-0.169l0.729-0.206V27.57z M55.17,27.882c-0.246,0.072-0.492,0.144-0.729,0.225v-0.193  l0.729-0.206V27.882z M53.941,28.293c-0.249,0.094-0.492,0.193-0.729,0.297v-0.328l0.729-0.206V28.293z M52.713,28.819  c-0.252,0.123-0.492,0.254-0.729,0.389v-0.598l0.729-0.206V28.819z M51.484,29.503c-0.253,0.16-0.499,0.325-0.729,0.499v-1.045  l0.729-0.206V29.503z M50.256,30.415c-0.262,0.226-0.506,0.46-0.729,0.704v-1.746c0-0.024-0.019-0.04-0.026-0.062l0.754-0.213  V30.415z M49.027,31.733c-0.299,0.407-0.542,0.833-0.729,1.275v-3.356l0.729-0.206V31.733z M47.799,53.116l-0.729,0.208V29.998  l0.729-0.206V53.116z M46.57,53.468l-0.488,0.14V37.93c0-0.368-0.086-0.76-0.24-1.157v-6.427l0.729-0.206V53.468z M30.778,37.93  c0-1.638,2.731-3.462,6.651-3.462c4.674,0,6.652,2.477,6.652,3.462v1.221c-0.894,1.479-3.579,2.586-6.652,2.586  c-3.073,0-5.757-1.107-6.651-2.586V37.93z M44.082,54.179l-1.845,0.528l-0.471-0.533c0.937-0.351,1.719-0.806,2.316-1.337V54.179z   M45.342,35.84c-0.202-0.294-0.445-0.582-0.729-0.86v-4.287l0.729-0.206V35.84z M44.113,34.535  c-0.225-0.182-0.466-0.358-0.729-0.524V31.04l0.729-0.206V34.535z M42.885,33.723c-0.231-0.125-0.473-0.242-0.729-0.352v-1.984  l0.729-0.206V33.723z M41.656,33.173c-0.234-0.086-0.476-0.165-0.729-0.237v-1.201l0.729-0.206V33.173z M40.428,32.803  c-0.222-0.052-0.453-0.095-0.688-0.136V32.07l0.688-0.194V32.803z M39.24,32.588c-0.324-0.043-0.659-0.073-1.005-0.093l1.005-0.284  V32.588z M29.813,35.299c-0.178,0.208-0.327,0.428-0.461,0.652v-0.945l0.461-0.13V35.299z M30.778,40.677  c1.414,1.25,3.84,2.06,6.651,2.06c2.812,0,5.238-0.81,6.652-2.06v4.474c-0.894,1.479-3.579,2.586-6.652,2.586  c-0.482,0-0.959-0.035-1.429-0.087l-5.222-5.909V40.677z M44.082,46.677v4.631c-0.499,0.838-1.577,1.581-3.03,2.058l-4.106-4.646  c0.094,0.003,2.397,0.108,4.194-0.501C42.449,47.775,43.492,47.198,44.082,46.677z M72.33,13.137l17.54,13.619l-7.191,14.638  l-17.563-16.44L72.33,13.137z M58.41,10.672l2.562,13.318l-35.247,9.963l-2.036-13.993L58.41,10.672z M24.211,37.48L38.95,54.435  l-14.186,3.069L11.23,39.33L24.211,37.48z M24.611,77.384c-1.202,1.102-3.359,1.858-5.769,1.858c-2.41,0-4.568-0.755-5.77-1.858  V73.88c1.475,0.957,3.5,1.542,5.77,1.542c2.269,0,4.294-0.584,5.769-1.541V77.384z M13.073,79.834  c1.532,0.879,3.538,1.408,5.77,1.408c2.231,0,4.237-0.529,5.769-1.408v3.136c-1.202,1.102-3.359,1.858-5.769,1.858  c-2.41,0-4.568-0.755-5.77-1.858V79.834z M18.843,66.962c3.521,0,5.769,1.666,5.769,2.813v1.45  c-0.936,1.272-3.199,2.196-5.769,2.196c-2.571,0-4.834-0.924-5.77-2.197v-1.449C13.073,68.628,15.321,66.962,18.843,66.962z   M18.843,89.481c-3.521,0-5.77-1.666-5.77-2.813V85.42c1.532,0.879,3.538,1.408,5.77,1.408c2.231,0,4.237-0.529,5.769-1.408v1.248  C24.611,87.815,22.364,89.481,18.843,89.481z M28.611,70.861v-1.086c0-1.854-1.016-3.509-2.683-4.726v-3.331l15.459-3.529v28.439  L28.611,70.861z M43.388,87.942V63.389l4.049,10.525c0.303,0.789,1.439,1.419,2.419,1.204l19.399-5.578v11.004L43.388,87.942z   M81.791,89.815c-5.03,0-8.536-2.552-8.536-4.843v-2.724c2.095,1.559,5.115,2.529,8.536,2.529s6.441-0.97,8.536-2.529v2.724  C90.327,87.263,86.821,89.815,81.791,89.815z M77.705,70.417l-2.152-0.922c-0.271-0.135-0.349,0.146-0.349,0.23v1.535  c0,0.1,0.06,0.19,0.151,0.23l2.152,0.922c0.032,0.013,0.32,0.041,0.349-0.23v-1.535C77.856,70.546,77.797,70.456,77.705,70.417z   M77.356,71.803l-1.652-0.708v-0.991l1.652,0.708V71.803z"></path></svg>