<svg height='100px' width='100px'  fill="#000000" xmlns="http://www.w3.org/2000/svg" xmlns:xlink="http://www.w3.org/1999/xlink" version="1.1" x="0px" y="0px" viewBox="0 0 512 512" enable-background="new 0 0 512 512" xml:space="preserve"><path d="M494.331,206.259c-0.933-1.617-2.694-2.574-4.554-2.497c-1.192,0.053-2.386,0.08-3.541,0.08  c-31.15,0-46.254-19.714-63.742-42.541c-20.899-27.279-44.587-58.198-100.348-65.271c-1.921-0.239-3.803,0.639-4.843,2.266  L255,195.704l-7.074-11.059c-0.001-0.001-0.001-0.002-0.002-0.003l-55.23-86.346c-1.04-1.627-2.925-2.505-4.841-2.266  c-55.76,7.073-79.448,37.992-100.347,65.271c-17.488,22.827-32.591,42.541-63.741,42.541c-1.157,0-2.348-0.027-3.541-0.08  c-1.859-0.093-3.622,0.879-4.554,2.497c-0.933,1.617-0.887,3.62,0.119,5.192l65.317,102.117c0.876,1.369,2.364,2.229,3.989,2.301  c1.354,0.061,2.746,0.072,4.038,0.091c36.066,0,53.508-22.33,71.971-45.972c18.582-23.792,39.488-50.546,84.3-59.28l-80.977,126.599  c-1.488,2.325-0.809,5.418,1.518,6.905c0.834,0.534,1.768,0.789,2.689,0.789c1.649,0,3.263-0.815,4.217-2.308L255,214.263  l82.149,128.432c0.952,1.492,2.566,2.307,4.217,2.307c0.922,0,1.854-0.255,2.688-0.789c2.326-1.488,3.006-4.58,1.52-6.906  l-80.978-126.598c44.813,8.734,65.721,35.488,84.303,59.279c18.466,23.642,35.905,45.973,71.979,45.973  c1.318,0,2.673-0.029,4.026-0.091c1.625-0.072,3.111-0.931,3.987-2.302l65.317-102.116  C495.218,209.878,495.264,207.876,494.331,206.259z M185.992,106.378l26.469,41.381c-42.409,7.457-65.025,29.452-83.008,51.754  l-26.638-41.645C120.611,135.418,142.731,112.776,185.992,106.378z M29.079,213.673c32.515-2.11,48.983-23.603,66.364-46.291  c0.287-0.375,0.577-0.752,0.865-1.128l10.438,16.318c-1.032,1.339-2.062,2.678-3.078,4.005  c-18.329,23.924-32.913,42.941-64.721,42.524L29.079,213.673z M45.236,238.932c32.506-2.105,49.004-23.606,66.37-46.273  c0.287-0.374,0.581-0.754,0.868-1.13l10.436,16.315c-1.032,1.34-2.058,2.676-3.074,4.002c-18.33,23.926-32.922,42.953-64.723,42.527  L45.236,238.932z M61.401,264.204c32.508-2.104,49.006-23.608,66.374-46.277c19.306-25.201,41.154-53.68,90.558-60.988l10.369,16.21  c-50.264,8.838-72.72,38.104-92.625,64.085c-18.33,23.928-32.912,42.958-64.724,42.53L61.401,264.204z M153.222,263.834  c-17.655,22.605-32.898,42.128-64.091,42.126c-0.001,0-0.008,0-0.01,0c-0.337,0-0.676-0.002-1.017-0.007L77.64,289.594  c32.509-2.104,49.007-23.607,66.374-46.277c19.306-25.2,41.154-53.679,90.558-60.987l11.554,18.063  C195.897,209.191,173.286,238.145,153.222,263.834z M324.007,106.378c43.261,6.397,65.382,29.04,83.177,51.492l-26.638,41.644  c-17.979-22.303-40.599-44.298-83.008-51.755L324.007,106.378z M421.895,305.953c-0.341,0.005-0.68,0.007-1.016,0.007  c-31.195,0-46.443-19.522-64.1-42.128c-20.063-25.688-42.678-54.641-92.907-63.44l6.626-10.358c0-0.001,0.001-0.001,0.001-0.002  l4.927-7.702c49.404,7.308,71.253,35.787,90.562,60.988c17.368,22.67,33.858,44.172,66.373,46.278L421.895,305.953z   M438.646,279.764c-31.819,0.424-46.396-18.603-64.725-42.528c-19.904-25.981-42.359-55.249-92.626-64.086l10.368-16.209  c49.404,7.308,71.253,35.787,90.559,60.988c17.369,22.67,33.861,44.17,66.374,46.277L438.646,279.764z M454.887,254.374  c-31.815,0.428-46.394-18.602-64.724-42.528c-1.016-1.326-2.041-2.662-3.073-4.002l10.437-16.313  c0.286,0.373,0.577,0.752,0.863,1.125c17.369,22.67,33.862,44.171,66.374,46.277L454.887,254.374z M471.052,229.101  c-31.817,0.423-46.394-18.602-64.724-42.528c-1.016-1.325-2.043-2.663-3.074-4.001l10.438-16.317  c0.288,0.375,0.575,0.753,0.862,1.127c17.382,22.688,33.852,44.181,66.364,46.291L471.052,229.101z"></path></svg>