<svg height='100px' width='100px'  fill="#000000" xmlns="http://www.w3.org/2000/svg" xmlns:xlink="http://www.w3.org/1999/xlink" version="1.1" x="0px" y="0px" viewBox="10.6 -1.9 100 122.1" style="enable-background:new 10.6 -1.9 100 122.1;" xml:space="preserve"><path d="M108.9,110.7c-1.2-2.8-2.3-5.7-3.9-8.4c-3-5.2-6.7-10-10.3-14.8C87.7,78.2,80.1,69.4,72,61c6.2-8.1,12-16.5,17.2-25.2  c3.1-5.1,6.2-10.4,8.7-15.8c1.3-2.8,2.1-5.8,3-8.8c0.8-2.5,1.2-5.8,0.8-8.3C101.5,1.6,100,1,99,1.7c-0.2,0.1-0.4,0.3-0.6,0.4  c-0.2-0.3-0.5-0.6-1-0.6c-0.8,0-1.6,0.1-2.4,0.1c-0.2-0.1-0.4-0.2-0.6-0.4c-1.4-0.9-2.7-1.9-4.2-2.7c-1.9-1-4-0.1-4.6,1.9  C79.7,18.3,71.7,35.2,62,51.3c-6.3-5.7-12.9-11.2-19.7-16.2c-5.2-3.8-10.4-7.4-15.7-10.9c-5-3.4-10-6.9-15.2-10  c-0.4-0.2-1,0.3-0.7,0.7c3.3,4.5,7.6,8.3,11.8,12.1c4.8,4.2,9.7,8.2,14.6,12.3c7.2,6,14.1,12.4,20.6,19.1c-8.9,14-19,27.3-29.7,40  c-1.5,1.6-3,3.1-4.5,4.7c-2.7,3-5.5,6-7.9,9.3c-1.2,1.3-2.3,2.6-3.5,3.8c-0.7,0.7,0.3,1.6,1,1c0.1-0.1,0.2-0.2,0.3-0.3  c0.1,0,0.3,0,0.4-0.1c4.9-3.5,9.5-7.6,14.1-11.5c4.9-4.1,9.8-8.2,14.5-12.5c8.7-7.8,16.7-16.3,24.1-25.3  c7.1,7.7,13.7,15.8,19.8,24.4c3.3,4.7,6.3,9.6,9.5,14.4c1.7,2.6,3.8,4.9,5.6,7.4c1.6,2.3,4.1,4.9,6.6,6.3c1.2,0.6,2.5-0.1,2.6-1.5  C110.8,116.3,110,113.1,108.9,110.7z"></path></svg>