<svg height='100px' width='100px'  fill="#000000" xmlns="http://www.w3.org/2000/svg" xmlns:xlink="http://www.w3.org/1999/xlink" version="1.1" x="0px" y="0px" viewBox="0 0 100 46" enable-background="new 0 0 100 46" xml:space="preserve"><g><path d="M74.1,5C67,5,60.8,9.2,57.9,15.2c-2.5-0.6-5.2-1-7.9-1c-2.8,0-5.4,0.3-7.9,1C39.2,9.2,33,5,25.9,5C16,5,8,13,8,22.9   c0,8.6,6.1,15.8,14.2,17.6c1,0.2,2,0.3,3.1,0.4c0.2,0,0.4,0,0.6,0c9.9,0,17.9-8,17.9-17.9c0-1.7-0.3-3.4-0.7-4.9   c2.2-0.5,4.5-0.8,6.8-0.8c2.4,0,4.7,0.3,6.8,0.8c-0.5,1.6-0.7,3.2-0.7,4.9c0,9.9,8,17.9,17.9,17.9c0.2,0,0.4,0,0.6,0   c1.1,0,2.1-0.1,3.1-0.4C85.9,38.8,92,31.6,92,22.9C92,13,84,5,74.1,5z M40.9,22.9c0,8.2-6.7,14.9-14.9,14.9c-0.3,0-0.6,0-0.9,0   c-1-0.1-2-0.2-3-0.5C15.7,35.7,11,29.8,11,22.9C11,14.7,17.7,8,25.9,8c5.8,0,10.7,3.3,13.2,8c0.5,0.9,0.8,1.8,1.1,2.8   C40.7,20.1,40.9,21.5,40.9,22.9z M77.9,37.4c-1,0.3-2,0.4-3,0.5c-0.3,0-0.6,0-0.9,0c-8.2,0-14.9-6.7-14.9-14.9   c0-1.4,0.2-2.8,0.6-4.1c0.3-1,0.7-1.9,1.1-2.8c2.5-4.8,7.5-8,13.2-8C82.3,8,89,14.7,89,22.9C89,29.8,84.3,35.7,77.9,37.4z"></path><path d="M26,36.4c-0.3,0-0.7,0-1,0l0.1-1c0.6,0,1.3,0,1.9,0l0.1,1C26.7,36.4,26.3,36.4,26,36.4z M22.9,36.1c-0.7-0.2-1.3-0.4-2-0.6   l0.4-0.9c0.6,0.2,1.2,0.4,1.8,0.6L22.9,36.1z M29,36.1l-0.2-1c0.6-0.1,1.2-0.3,1.8-0.6l0.4,0.9C30.3,35.7,29.7,35.9,29,36.1z    M19.1,34.6c-0.6-0.3-1.2-0.7-1.7-1.2l0.6-0.8c0.5,0.4,1,0.8,1.6,1.1L19.1,34.6z M32.8,34.6l-0.5-0.9c0.5-0.3,1.1-0.7,1.6-1.1   l0.6,0.8C34,33.9,33.4,34.3,32.8,34.6z M16,32.1c-0.5-0.5-0.9-1-1.3-1.6l0.8-0.6c0.4,0.5,0.8,1,1.2,1.5L16,32.1z M36,32.1l-0.7-0.7   c0.4-0.5,0.8-1,1.2-1.5l0.8,0.6C36.9,31,36.4,31.6,36,32.1z M13.7,28.7c-0.3-0.6-0.5-1.3-0.7-1.9l1-0.3c0.2,0.6,0.4,1.2,0.7,1.8   L13.7,28.7z M38.3,28.7l-0.9-0.4c0.3-0.6,0.5-1.2,0.7-1.8l1,0.3C38.8,27.4,38.6,28.1,38.3,28.7z M12.5,24.8c-0.1-0.7-0.2-1.4-0.2-2   l1,0c0,0.6,0,1.3,0.1,1.9L12.5,24.8z M39.5,24.8l-1-0.1c0.1-0.6,0.1-1.3,0.1-1.9l0.7,0l0.3,0C39.6,23.5,39.6,24.1,39.5,24.8z    M13.4,20.9l-1-0.1c0.1-0.7,0.2-1.3,0.4-2l1,0.3C13.7,19.7,13.5,20.3,13.4,20.9z M38.5,20.8c-0.1-0.6-0.2-1.2-0.4-1.8l1-0.3   c0.2,0.6,0.4,1.3,0.5,2L38.5,20.8z M14.5,17.3l-0.9-0.4c0.3-0.6,0.6-1.2,1-1.8l0.8,0.6C15.1,16.2,14.8,16.7,14.5,17.3z M37.4,17.2   c-0.3-0.6-0.6-1.1-1-1.6l0.8-0.6c0.4,0.6,0.7,1.2,1,1.8L37.4,17.2z M16.7,14.2l-0.7-0.7c0.5-0.5,1-1,1.5-1.4l0.6,0.8   C17.6,13.3,17.1,13.7,16.7,14.2z M35.2,14.1c-0.4-0.5-0.9-0.9-1.4-1.3l0.6-0.8c0.5,0.4,1,0.9,1.5,1.4L35.2,14.1z M19.6,11.8   L19.1,11c0.6-0.3,1.2-0.6,1.8-0.9l0.4,0.9C20.7,11.2,20.1,11.5,19.6,11.8z M32.3,11.8c-0.5-0.3-1.1-0.6-1.7-0.8l0.4-0.9   c0.6,0.2,1.3,0.5,1.8,0.9L32.3,11.8z M23.1,10.4l-0.2-1c0.7-0.2,1.3-0.3,2-0.3l0.1,1C24.3,10.2,23.7,10.3,23.1,10.4z M28.7,10.4   c-0.6-0.1-1.2-0.2-1.9-0.3l0.1-1c0.7,0,1.4,0.1,2,0.3L28.7,10.4z"></path><path d="M74.2,36.4c-0.3,0-0.7,0-1,0l0.1-1c0.6,0,1.3,0,1.9,0l0.1,1C74.9,36.4,74.5,36.4,74.2,36.4z M71.2,36.1   c-0.7-0.2-1.3-0.4-2-0.6l0.4-0.9c0.6,0.2,1.2,0.4,1.8,0.6L71.2,36.1z M77.2,36.1l-0.2-1c0.6-0.1,1.2-0.3,1.8-0.6l0.4,0.9   C78.6,35.7,77.9,35.9,77.2,36.1z M67.4,34.6c-0.6-0.3-1.2-0.7-1.7-1.2l0.6-0.8c0.5,0.4,1,0.8,1.6,1.1L67.4,34.6z M81,34.6l-0.5-0.9   c0.5-0.3,1.1-0.7,1.6-1.1l0.6,0.8C82.2,33.9,81.6,34.3,81,34.6z M64.2,32.1c-0.5-0.5-0.9-1-1.3-1.6l0.8-0.6c0.4,0.5,0.8,1,1.2,1.5   L64.2,32.1z M84.2,32.1l-0.7-0.7c0.4-0.5,0.8-1,1.2-1.5l0.8,0.6C85.1,31,84.7,31.6,84.2,32.1z M61.9,28.7c-0.3-0.6-0.5-1.3-0.7-1.9   l1-0.3c0.2,0.6,0.4,1.2,0.7,1.8L61.9,28.7z M86.5,28.7l-0.9-0.4c0.3-0.6,0.5-1.2,0.7-1.8l1,0.3C87,27.4,86.8,28.1,86.5,28.7z    M60.7,24.8c-0.1-0.7-0.2-1.4-0.2-2l1,0c0,0.6,0,1.3,0.1,1.9L60.7,24.8z M87.7,24.8l-1-0.1c0.1-0.6,0.1-1.3,0.1-1.9l1-0.1v0.1   C87.9,23.5,87.8,24.1,87.7,24.8z M61.7,20.9l-1-0.1c0.1-0.7,0.2-1.3,0.4-2l1,0.3C61.9,19.7,61.7,20.3,61.7,20.9z M86.7,20.8   c-0.1-0.6-0.2-1.2-0.4-1.8l1-0.3c0.2,0.6,0.4,1.3,0.5,2L86.7,20.8z M62.8,17.3l-0.9-0.4c0.3-0.6,0.6-1.2,1-1.8l0.8,0.6   C63.3,16.2,63,16.7,62.8,17.3z M85.6,17.2c-0.3-0.6-0.6-1.1-1-1.6l0.8-0.6c0.4,0.6,0.7,1.2,1,1.8L85.6,17.2z M64.9,14.2l-0.7-0.7   c0.5-0.5,1-1,1.5-1.4l0.6,0.8C65.8,13.3,65.3,13.7,64.9,14.2z M83.4,14.1c-0.4-0.5-0.9-0.9-1.4-1.3l0.6-0.8c0.5,0.4,1,0.9,1.5,1.4   L83.4,14.1z M67.8,11.8L67.3,11c0.6-0.3,1.2-0.6,1.8-0.9l0.4,0.9C68.9,11.2,68.4,11.5,67.8,11.8z M80.5,11.8   c-0.5-0.3-1.1-0.6-1.7-0.8l0.4-0.9c0.6,0.2,1.3,0.5,1.8,0.9L80.5,11.8z M71.3,10.4l-0.2-1c0.7-0.2,1.3-0.3,2-0.3l0.1,1   C72.6,10.2,71.9,10.3,71.3,10.4z M77,10.4c-0.6-0.1-1.2-0.2-1.9-0.3l0.1-1c0.7,0,1.4,0.1,2,0.3L77,10.4z"></path></g></svg>