<svg height='100px' width='100px'  xmlns="http://www.w3.org/2000/svg" viewBox="0 0 24 24" fill="none" x="0px" y="0px"><path d="M17.3937 5.79528C17.1544 5.61257 17 5.32431 17 5C17 4.44772 17.4477 4 18 4C18.3264 4 18.6163 4.15637 18.7988 4.39827L19.1994 4L20 4.88832L18.874 6.00787C18.9152 6.00268 18.9573 6 19 6C19.5523 6 20 6.44772 20 7.00001C20 7.55229 19.5523 8.00001 19 8.00001C18.4477 8.00001 18 7.55229 18 7.00001C18 6.95534 18.0029 6.91135 18.0086 6.86824L17.6417 7.23302C17.8607 7.41646 18 7.69197 18 8.00001C18 8.5523 17.5523 9.00001 17 9.00001C16.6899 9.00001 16.4127 8.85885 16.2293 8.63727L14.847 10.0117C14.8969 10.004 14.948 10 15 10C15.5523 10 16 10.4477 16 11C16 11.5523 15.5523 12 15 12C14.4477 12 14 11.5523 14 11C14 10.946 14.0043 10.893 14.0125 10.8413L11.8261 13.0151C11.8826 13.0052 11.9407 13 12 13C12.5523 13 13 13.4477 13 14C13 14.5523 12.5523 15 12 15C11.4477 15 11 14.5523 11 14C11 13.9387 11.0055 13.8787 11.0161 13.8204L9.81188 15.0177C9.87281 15.0061 9.9357 15 10 15C10.5523 15 11 15.4477 11 16C11 16.5523 10.5523 17 10 17C9.44772 17 9 16.5523 9 16C9 15.9337 9.00645 15.8689 9.01876 15.8062L8.61287 16.2098C8.84843 16.3927 9 16.6787 9 17C9 17.5523 8.55228 18 8 18C7.67658 18 7.38901 17.8465 7.20622 17.6083L4.80064 20L4 19.1117L5.12604 17.9922C5.08476 17.9974 5.04269 18 5 18C4.44772 18 4 17.5523 4 17C4 16.4477 4.44772 16 5 16C5.55228 16 6 16.4477 6 17C6 17.0447 5.99707 17.0887 5.9914 17.1318L7.36145 15.7696C7.14062 15.5862 7 15.3095 7 15C7 14.4477 7.44772 14 8 14C8.31159 14 8.5899 14.1425 8.7733 14.3659L9.3678 13.7749C9.14331 13.5915 9 13.3125 9 13C9 12.4477 9.44772 12 10 12C10.3145 12 10.5952 12.1452 10.7785 12.3723L11.1669 11.9862C11.1126 11.9953 11.0569 12 11 12C10.4477 12 10 11.5523 10 11C10 10.4477 10.4477 10 11 10C11.5523 10 12 10.4477 12 11C12 11.0589 11.9949 11.1165 11.9852 11.1726L13.3806 9.78517C13.1488 9.60203 13 9.3184 13 9.00001C13 8.44773 13.4477 8.00001 14 8.00001C14.3205 8.00001 14.6057 8.15075 14.7887 8.3852L15.1953 7.98094C15.1322 7.99345 15.0668 8.00001 15 8.00001C14.4477 8.00001 14 7.55229 14 7.00001C14 6.44772 14.4477 6 15 6C15.5523 6 16 6.44772 16 7.00001C16 7.06885 15.993 7.13607 15.9798 7.201L17.3937 5.79528ZM8 10C7.44772 10 7 9.5523 7 9.00001C7 8.44773 7.44772 8.00001 8 8.00001C8.55228 8.00001 9 8.44773 9 9.00001C9 9.5523 8.55228 10 8 10ZM8 14C7.44772 14 7 13.5523 7 13C7 12.4477 7.44772 12 8 12C8.55228 12 9 12.4477 9 13C9 13.5523 8.55228 14 8 14ZM13 17C12.4477 17 12 16.5523 12 16C12 15.4477 12.4477 15 13 15C13.5523 15 14 15.4477 14 16C14 16.5523 13.5523 17 13 17ZM16 19C15.4477 19 15 18.5523 15 18C15 17.4477 15.4477 17 16 17C16.5523 17 17 17.4477 17 18C17 18.5523 16.5523 19 16 19ZM18 11C17.4477 11 17 10.5523 17 10C17 9.44773 17.4477 9.00001 18 9.00001C18.5523 9.00001 19 9.44773 19 10C19 10.5523 18.5523 11 18 11ZM17 13C16.4477 13 16 12.5523 16 12C16 11.4477 16.4477 11 17 11C17.5523 11 18 11.4477 18 12C18 12.5523 17.5523 13 17 13ZM14 14C13.4477 14 13 13.5523 13 13C13 12.4477 13.4477 12 14 12C14.5523 12 15 12.4477 15 13C15 13.5523 14.5523 14 14 14ZM9 20C8.44772 20 8 19.5523 8 19C8 18.4477 8.44772 18 9 18C9.55228 18 10 18.4477 10 19C10 19.5523 9.55228 20 9 20ZM19 15C18.4477 15 18 14.5523 18 14C18 13.4477 18.4477 13 19 13C19.5523 13 20 13.4477 20 14C20 14.5523 19.5523 15 19 15ZM6 15C5.44772 15 5 14.5523 5 14C5 13.4477 5.44772 13 6 13C6.55228 13 7 13.4477 7 14C7 14.5523 6.55228 15 6 15ZM5 13C4.44772 13 4 12.5523 4 12C4 11.4477 4.44772 11 5 11C5.55228 11 6 11.4477 6 12C6 12.5523 5.55228 13 5 13ZM7 6C6.44772 6 6 5.55229 6 5C6 4.44772 6.44772 4 7 4C7.55228 4 8 4.44772 8 5C8 5.55229 7.55228 6 7 6ZM12 10C11.4477 10 11 9.5523 11 9.00001C11 8.44773 11.4477 8.00001 12 8.00001C12.5523 8.00001 13 8.44773 13 9.00001C13 9.5523 12.5523 10 12 10ZM13 7.00001C12.4477 7.00001 12 6.55229 12 6C12 5.44772 12.4477 5 13 5C13.5523 5 14 5.44772 14 6C14 6.55229 13.5523 7.00001 13 7.00001Z" fill="black"></path></svg>