<svg height='100px' width='100px'  fill="#FFFFFF" xmlns="http://www.w3.org/2000/svg" xmlns:xlink="http://www.w3.org/1999/xlink" version="1.1" x="0px" y="0px" viewBox="0 0 100 100" enable-background="new 0 0 100 100" xml:space="preserve"><path d="M50.033,18.846c-17.179,0-31.154,13.976-31.154,31.154s13.976,31.154,31.154,31.154S81.188,67.179,81.188,50  S67.212,18.846,50.033,18.846z M50.033,20.846c5.092,0,9.88,1.315,14.05,3.619c-1.345,0.503-2.667,1.173-3.045,1.957  c-0.471,0.975-1.733,2.336-2.17,2.263c-0.001,0-0.109-0.063-0.247-0.382c-1.065-2.468-4.413-6.448-6.161-6.302  c-0.955,0.071-1.318,0.97-1.64,1.763c-0.569,1.407-0.873,1.719-1.592,1.592c-2.216-0.41-5.467,0.353-7.243,1.689  c-1.087,0.816-1.384,1.666-1.442,2.234c-0.212,2.091,1.15,3.57,4.05,4.396c1.354,0.381,2.097-0.856,2.642-1.763  c0.38-0.632,0.811-1.348,1.271-1.461c0.316-0.074,0.722,0.117,1.01,0.293c0.312,0.188,0.628,0.375,0.943,0.561  c1.581,0.931,3.373,1.985,3.438,2.891c0.035,0.476-0.446,1.141-1.355,1.871c-3.753,3.02-4.443,4.381-5.316,6.104  c-0.104,0.205-0.211,0.416-0.327,0.638c-0.789,1.499-3.554,2.417-4.921,2.222c-1.322-0.188-1.887,0.514-2.069,0.824  c-0.626,1.066,0,2.565,0.796,3.613c0.7,0.923,0.717,1.433,0.637,1.484c-0.545,0-1.849-0.445-4.464-3.43  c-0.594-0.678-1.263-1.384-1.947-2.106c-2.106-2.222-4.494-4.74-4.807-6.736c-0.391-2.483-2.716-4.361-4.054-5.254  C31.336,25.831,40.111,20.846,50.033,20.846z M50.643,61.597c-0.319-0.245-0.677-0.483-1.044-0.728c-1.504-1-2.49-1.759-2.49-3.138  c0-2.579,0.055-3.519,1.124-4.439c0.485-0.417,1.954-0.825,6.343,1.14c0.958,0.429,0.989,0.725,1.048,1.263  c0.071,0.67,0.192,1.791,1.946,2.273c0.497,0.137,1.096,0.255,1.724,0.378c1.218,0.238,3.255,0.638,3.609,1.257  c0.023,0.042,0.08,0.14-0.019,0.421c-0.247,0.703-0.415,1.444-0.578,2.162c-0.512,2.253-0.857,3.254-2.022,3.385  c-2.278,0.257-3.457,2.16-4.498,3.84c-0.465,0.751-0.945,1.527-1.495,2.122c-1.601,1.731-3.962,4.827-3.473,7.602  c-0.118,0.003-0.236,0.007-0.354,0.009c-0.969-1.1-1.847-2.863-1.193-5.416c0.145-0.563,0.353-1.273,0.583-2.062  C51.348,66.563,52.279,62.854,50.643,61.597z M52.842,79.016c-0.609-2.088,2.044-5.183,2.917-6.127  c0.68-0.735,1.212-1.595,1.728-2.426c0.916-1.48,1.708-2.758,3.021-2.905c2.699-0.305,3.281-2.87,3.749-4.931  c0.15-0.662,0.306-1.347,0.515-1.942c0.332-0.944,0.111-1.65-0.133-2.077c-0.809-1.412-2.919-1.825-4.96-2.225  c-0.575-0.113-1.123-0.219-1.577-0.344c-0.345-0.095-0.427-0.184-0.427-0.184c-0.027-0.048-0.049-0.245-0.063-0.376  c-0.104-0.956-0.368-2.046-2.22-2.875c-4.23-1.894-6.921-2.157-8.464-0.829c-1.819,1.566-1.819,3.407-1.819,5.955  c0,2.555,1.955,3.854,3.383,4.803c0.328,0.218,0.647,0.43,0.903,0.62c0.614,0.866-0.893,6.013-1.46,7.95  c-0.238,0.813-0.452,1.545-0.602,2.126c-0.644,2.51-0.12,4.458,0.647,5.844C32.859,78.016,20.879,65.385,20.879,50  c0-5.439,1.501-10.533,4.105-14.895c1.194,0.798,2.906,2.26,3.162,3.885c0.41,2.609,2.912,5.249,5.331,7.802  c0.666,0.702,1.317,1.389,1.896,2.049c2.458,2.805,4.354,4.111,5.968,4.111c0.816,0,1.504-0.403,1.839-1.079  c0.275-0.554,0.525-1.76-0.883-3.614c-0.413-0.544-0.579-0.998-0.628-1.252c0.009,0.001,0.019,0.003,0.027,0.004  c1.995,0.281,5.699-0.851,6.972-3.271c0.122-0.231,0.233-0.452,0.342-0.666c0.794-1.567,1.368-2.699,4.786-5.449  c1.498-1.205,2.184-2.374,2.097-3.574c-0.143-1.953-2.22-3.176-4.419-4.47c-0.308-0.181-0.616-0.363-0.921-0.548  c-0.894-0.541-1.744-0.716-2.526-0.524c-1.267,0.313-1.953,1.455-2.505,2.373c-0.16,0.267-0.39,0.647-0.544,0.821  c-2.278-0.684-2.517-1.505-2.443-2.222c0.024-0.239,0.263-0.545,0.654-0.839c1.32-0.993,4.027-1.619,5.684-1.321  c2.468,0.455,3.375-1.749,3.803-2.808c0.044-0.107,0.095-0.232,0.144-0.347c0.957,0.643,3.056,2.814,3.968,4.928  c0.584,1.354,1.523,1.574,2.031,1.585c0.015,0.001,0.029,0.001,0.044,0.001c1.925,0,3.651-2.713,3.951-3.345  c0.275-0.344,1.859-1.014,3.514-1.502c3.846,2.601,7.039,6.097,9.283,10.185c-0.994-0.08-1.987,0.061-2.737,0.609  c-0.577,0.42-1.245,1.247-1.153,2.806c0.185,2.929-0.06,4.196-2.034,6.954c-1.156,1.613-1.388,3.675-0.62,5.515  c0.821,1.969,2.599,3.351,4.752,3.695l0.671,0.108c2.068,0.334,3.431,0.556,3.94,0.889C75.634,68.618,65.391,77.811,52.842,79.016z   M78.825,54.579c-0.891-0.336-2.155-0.546-4.019-0.847l-0.672-0.108c-1.466-0.235-2.672-1.166-3.225-2.491  c-0.506-1.214-0.36-2.519,0.399-3.58c2.283-3.187,2.614-4.93,2.405-8.241c-0.047-0.788,0.24-0.997,0.335-1.066  c0.472-0.344,1.573-0.326,2.663,0.02c1.587,3.594,2.475,7.562,2.475,11.736C79.188,51.558,79.062,53.086,78.825,54.579z   M66.872,85.353c0.226,0.504-0.001,1.096-0.505,1.321c-3.566,1.595-7.34,2.654-11.216,3.149c-0.043,0.005-0.086,0.008-0.128,0.008  c-0.496,0-0.927-0.368-0.991-0.873c-0.069-0.548,0.317-1.049,0.865-1.119c3.682-0.47,7.266-1.477,10.653-2.991  C66.059,84.619,66.646,84.85,66.872,85.353z M32.351,15.063c-0.238-0.498-0.026-1.095,0.473-1.332  c3.641-1.735,7.512-2.904,11.505-3.476c0.544-0.083,1.054,0.302,1.132,0.849s-0.302,1.054-0.849,1.132  c-3.793,0.542-7.47,1.652-10.929,3.3c-0.139,0.066-0.285,0.098-0.429,0.098C32.88,15.634,32.521,15.424,32.351,15.063z   M51.033,89.147c0,0.553-0.447,1-1,1c-21.726,0-39.464-17.35-40.116-38.921l-3.21,3.21l-1.414-1.414l5.593-5.593l5.593,5.593  l-1.414,1.414l-3.146-3.146c0.684,20.438,17.513,36.857,38.115,36.857C50.586,88.147,51.033,88.595,51.033,89.147z M94.707,46.491  l-5.593,5.593l-5.593-5.593l1.414-1.414l3.202,3.202c-0.903-20.238-17.646-36.427-38.105-36.427c-0.553,0-1-0.447-1-1s0.447-1,1-1  c21.545,0,39.175,17.06,40.104,38.381l3.156-3.156L94.707,46.491z"></path></svg>