<svg height='100px' width='100px'  fill="#FFFFFF" xmlns="http://www.w3.org/2000/svg" xmlns:xlink="http://www.w3.org/1999/xlink" version="1.1" x="0px" y="0px" viewBox="0 0 100 100" style="enable-background:new 0 0 100 100;" xml:space="preserve"><style type="text/css">
	.st0{fill:none;}
</style><rect class="st0" width="100" height="100"></rect><path d="M76.6,30.5v-1.9l0,0c0-0.1,0-0.2,0-0.2c0-2.7-3.1-4.9-9.3-6.5c-5.4-1.4-12.7-2.2-20.3-2.2s-14.9,0.8-20.3,2.2  c-6.2,1.6-9.3,3.8-9.3,6.5c0,0.1,0,0.2,0,0.3v4.6c-0.5,0.1-1.1,0.2-1.6,0.4c-6.2,1.6-9.3,3.8-9.3,6.5c0,0.1,0,0.2,0,0.3V49  c0,2.2,2,4,5.9,5.5v8c0,0.1,0,0.2,0,0.3s0,0.2,0,0.3v8.6c0,2.7,3.1,4.9,9.3,6.5c5.4,1.4,12.6,2.2,20.3,2.2c6.3,0,12.2-0.5,17.2-1.5  c2.7,1,5.6,1.5,8.6,1.5c14.1,0,25.7-11.5,25.7-25.7C93.5,43.6,86.4,34.1,76.6,30.5z M67.8,77.6c-1,0-2-0.1-2.9-0.2  c-1-0.1-2-0.3-2.9-0.6c-0.9-0.2-1.7-0.5-2.5-0.8c-2.6-1-4.9-2.5-7-4.3c-0.2-0.2-0.4-0.4-0.7-0.6l0,0c-0.4-0.4-0.8-0.8-1.2-1.2l0,0  c-0.4-0.4-0.7-0.8-1-1.3l0,0c-0.9-1.2-1.8-2.6-2.4-4c-0.2-0.5-0.4-0.9-0.6-1.4c0-0.1-0.1-0.1-0.1-0.2l0,0c0-0.1-0.1-0.2-0.1-0.3  c-0.1-0.3-0.2-0.6-0.3-0.9c-0.1-0.2-0.1-0.3-0.2-0.5c-0.1-0.4-0.3-0.9-0.4-1.4c-0.2-0.8-0.3-1.6-0.4-2.5c0-0.1,0-0.3,0-0.4  c0-0.3-0.1-0.6-0.1-1c0-0.1,0-0.2,0-0.4l0,0c0-0.3,0-0.6,0-0.8v-0.1c0-0.1,0-0.2,0-0.4l0,0c0-0.4,0-0.9,0.1-1.3  c0.1-1.3,0.3-2.6,0.6-3.8l0,0c0.1-0.2,0.1-0.4,0.2-0.7c0-0.1,0.1-0.2,0.1-0.3c0.1-0.4,0.2-0.8,0.4-1.2c0-0.1,0-0.1,0.1-0.2  c0.1-0.3,0.2-0.5,0.3-0.8c0.1-0.1,0.1-0.3,0.2-0.4v-0.1c0.1-0.3,0.3-0.6,0.4-0.8c0.2-0.5,0.5-0.9,0.7-1.4c0.3-0.5,0.6-0.9,0.9-1.4  c0.3-0.5,0.7-0.9,1-1.4c0.4-0.5,0.8-0.9,1.2-1.4c0.6-0.6,1.2-1.2,1.8-1.8l0,0c0.2-0.1,0.3-0.3,0.5-0.4c0.3-0.3,0.7-0.6,1.1-0.8  c0.4-0.3,0.7-0.5,1.1-0.7c0.2-0.1,0.3-0.2,0.5-0.3c0.6-0.3,1.1-0.7,1.7-0.9c0.3-0.2,0.7-0.3,1-0.5c2.7-1.2,5.7-1.8,8.9-1.8  c0.1,0,0.1,0,0.2,0c1.1,0,2.2,0.1,3.3,0.3c0.7,0.1,1.5,0.3,2.2,0.4c0.1,0,0.2,0.1,0.3,0.1c0.5,0.1,0.9,0.3,1.4,0.4  c0.5,0.2,0.9,0.3,1.4,0.5c8.3,3.4,14.2,11.6,14.2,21.2C90.7,67.3,80.5,77.6,67.8,77.6z M42.1,77.6c-7.4,0-14.4-0.7-19.6-2.1  c-5.7-1.5-7.2-3.2-7.2-3.8l0,0v-4.9c1.5,1,3.7,1.8,6.5,2.6c5.4,1.4,12.6,2.2,20.3,2.2c2.1,0,4.2-0.1,6.3-0.2  c0.1,0.1,0.2,0.2,0.3,0.4c1.8,2,3.9,3.7,6.2,5.1C50.9,77.3,46.6,77.6,42.1,77.6z M9.3,40.1c0-0.3,0.2-0.6,0.8-1.1  c0.9-0.8,2.9-1.8,6.4-2.7c0.3-0.1,0.6-0.2,0.9-0.2v1.2l0,0l0,0c0,0.6,0.2,1.2,0.5,1.8c0.3,0.5,0.7,0.9,1.2,1.4  c0.6,0.5,1.3,0.9,2.1,1.4c1.4,0.7,3.3,1.4,5.5,2c2.9,0.7,6.2,1.3,9.9,1.7c2,0.2,4.1,0.3,6.2,0.4c-2.2,0-4.4,0-6.7,0  c-1.9,0-3.8,0-5.6-0.1c-5.3-0.3-10.1-0.9-14-2c-2.8-0.7-4.6-1.5-5.7-2.2c-0.9-0.5-1.3-1-1.4-1.4C9.3,40.3,9.3,40.2,9.3,40.1z   M20.2,32.7v-0.4c0.2,0.1,0.3,0.2,0.5,0.3c0.7,0.4,1.4,0.7,2.3,1.1c0.9,0.4,2,0.7,3.1,1c0.2,0.1,0.4,0.1,0.6,0.2  C32.1,36.2,39.3,37,47,37c0.8,0,1.5,0,2.3,0c-0.1,0.1-0.2,0.2-0.2,0.2l0,0c-0.5,0.6-1,1.2-1.5,1.8c-0.3,0.4-0.7,0.9-1,1.4  c-0.3,0.4-0.6,0.9-0.9,1.4c-0.3,0.5-0.5,0.9-0.8,1.4c-5.3-0.1-10.3-0.6-14.5-1.4c-1.1-0.2-2.1-0.4-3.1-0.7c-0.9-0.2-1.7-0.5-2.3-0.7  c-1.4-0.5-2.4-0.9-3.2-1.4c-1.3-0.7-1.7-1.4-1.7-1.8l0,0l0,0v-1.7v-1.4v-1.4H20.2z M20.1,28.3c0-0.3,0.2-0.6,0.8-1.1  c0.9-0.8,2.9-1.8,6.4-2.7c5.2-1.4,12.2-2.1,19.6-2.1s14.4,0.7,19.6,2.1c3.6,0.9,5.5,1.9,6.4,2.7c0.6,0.5,0.8,0.9,0.8,1.1  c0,0.1,0,0.2-0.1,0.3c-0.1,0.2-0.4,0.6-0.8,0.9c-1.7-0.3-3.4-0.5-5.1-0.5c-2.4,0-4.8,0.3-7,1c-2.5,0.7-4.8,1.7-6.9,3.1  c-0.5,0.3-1,0.7-1.5,1.1c-0.1,0-0.2,0-0.2,0c-1.7,0.1-3.5,0.1-5.3,0.1c-5.8,0-11.4-0.5-16.1-1.3c-1.3-0.2-2.4-0.5-3.6-0.8  c-0.4-0.1-0.7-0.2-1-0.3c-2.2-0.6-3.7-1.3-4.7-1.9c-0.9-0.5-1.3-1-1.4-1.4C20.2,28.5,20.1,28.4,20.1,28.3z M42.7,59.9  c-0.2,0-0.4,0-0.7,0c-6.2,0-12.2-0.5-17-1.5c-0.9-0.2-1.8-0.4-2.6-0.6c-0.1,0-0.3-0.1-0.4-0.1c-0.9-0.2-1.7-0.5-2.4-0.7  c-1-0.4-1.8-0.7-2.5-1.1c1.2,0.3,2.4,0.5,3.7,0.7c1.2,0.2,2.4,0.4,3.7,0.5c1.8,0.2,3.8,0.4,5.8,0.5c1.9,0.1,3.8,0.2,5.8,0.2  c2.1,0,4.2-0.1,6.2-0.2C42.4,58.3,42.6,59.1,42.7,59.9z M9.3,49v-4.9c1.5,1,3.7,1.8,6.5,2.5c1.6,0.4,3.3,0.8,5.1,1.1  c1.2,0.2,2.5,0.4,3.8,0.5c1.9,0.2,3.9,0.4,5.9,0.5c1.8,0.1,3.6,0.1,5.5,0.1c2.3,0,4.6-0.1,6.8-0.2c0,0.1-0.1,0.3-0.1,0.4l0,0  c-0.3,1.2-0.5,2.5-0.6,3.8c0,0.4-0.1,0.9-0.1,1.3v0.1c0,0.2,0,0.3,0,0.5v0.1c-2,0.1-4,0.2-6.1,0.2c-2,0-4-0.1-5.9-0.2  c-2.2-0.1-4.4-0.3-6.4-0.6c-2.7-0.3-5.2-0.8-7.3-1.4c0,0,0,0-0.1,0s-0.2-0.1-0.3-0.1c-0.6-0.1-1.1-0.3-1.5-0.5  c-0.5-0.2-1-0.3-1.4-0.5C10.2,50.6,9.3,49.5,9.3,49L9.3,49L9.3,49z M15.2,57.9c0.3,0.2,0.5,0.3,0.8,0.5c0.5,0.3,1,0.5,1.6,0.8  c0.6,0.2,1.2,0.5,2,0.7c0.7,0.2,1.4,0.4,2.1,0.6c1.9,0.5,4,0.9,6.3,1.2c4.2,0.6,9.1,0.9,14,0.9c0.5,0,0.9,0,1.4,0  c0,0.1,0,0.2,0.1,0.2l0,0c0,0.1,0,0.1,0.1,0.2c0.2,0.5,0.3,0.9,0.5,1.4c0.6,1.5,1.3,2.9,2.2,4.2c-1.4,0.1-2.8,0.1-4.3,0.1  c-7.4,0-14.4-0.7-19.6-2.1c-2.8-0.7-4.6-1.5-5.7-2.2c-0.9-0.5-1.3-1-1.4-1.4v-0.1v-0.1l0,0v-0.2v-1v-1.1v-1.7v-0.9H15.2z"></path><path d="M69.9,46c2.1,0,4.1,0.7,5.8,1.9l0.6,0.4l1-2.5l-0.4-0.2c-2.1-1.4-4.5-2.2-7-2.2c-5.8,0-10.9,4.1-12,9.8h-2h0h-0.3  c-0.6,0-1.1,0.5-1.1,1.1c0,0.6,0.5,1.1,1.1,1.1h0.3h0h1.7c0,0.1,0,0.2,0,0.3c0,0.2,0,0.3,0,0.4h-1.7h0h-0.3c-0.6,0-1.1,0.5-1.1,1.1  c0,0.6,0.5,1.1,1.1,1.1h0.3h0h2c1.2,5.5,6.2,9.6,12,9.6c2.2,0,4.4-0.6,6.3-1.7v-3.2c-1.7,1.5-4,2.3-6.3,2.3c-4.3,0-8.1-2.9-9.3-7  h11.7l0.9-2.2H60.3c0-0.2,0-0.3,0-0.4c0-0.1,0-0.2,0-0.3h13.2l0.9-2.2H60.6C61.7,49,65.6,46,69.9,46z"></path></svg>