<svg height='100px' width='100px'  fill="#FFFFFF" xmlns="http://www.w3.org/2000/svg" xmlns:xlink="http://www.w3.org/1999/xlink" version="1.1" x="0px" y="0px" viewBox="0 0 16 16" style="enable-background:new 0 0 16 16;" xml:space="preserve"><g><rect x="3" y="10" width="1" height="4"></rect><rect x="5" y="10" width="1" height="4"></rect><rect x="7" y="10" width="1" height="4"></rect><rect x="9" y="10" width="1" height="4"></rect><rect x="11" y="10" width="1" height="4"></rect><path d="M2.5,9h10C12.776,9,13,8.776,13,8.5S12.776,8,12.5,8h-10C2.224,8,2,8.224,2,8.5S2.224,9,2.5,9z"></path><path d="M8,3.543V2h3l-1-1l1-1H7v3.543C5.088,3.758,3.54,5.158,3.12,7h8.76C11.46,5.158,9.911,3.758,8,3.543z"></path><rect x="2" y="15" width="11" height="1"></rect></g></svg>