<svg height='100px' width='100px'  fill="#ffffff" xmlns="http://www.w3.org/2000/svg" xmlns:xlink="http://www.w3.org/1999/xlink" version="1.1" x="0px" y="0px" viewBox="0 0 512 512" enable-background="new 0 0 512 512" xml:space="preserve"><g><path d="M334.237,317.96c-10.857,0-19.69,8.829-19.69,19.683c0,10.854,8.833,19.684,19.69,19.684   c10.836,0,19.649-8.829,19.649-19.684C353.887,326.789,345.073,317.96,334.237,317.96z M334.237,343.326   c-3.14,0-5.69-2.549-5.69-5.684c0-3.134,2.553-5.683,5.69-5.683c3.114,0,5.649,2.549,5.649,5.683   C339.888,340.777,337.353,343.326,334.237,343.326z"></path><path d="M420.486,345.236c0-10.854-8.816-19.68-19.653-19.68c-10.857,0-19.691,8.826-19.691,19.68   c0,10.853,8.834,19.682,19.691,19.682C411.67,364.918,420.486,356.089,420.486,345.236z M400.833,350.919   c-3.139,0-5.691-2.549-5.691-5.683c0-3.133,2.554-5.68,5.691-5.68c3.117,0,5.653,2.549,5.653,5.68   C406.486,348.37,403.95,350.919,400.833,350.919z"></path><path d="M306.948,368.648c-10.837,0-19.653,8.828-19.653,19.682s8.816,19.682,19.653,19.682c10.854,0,19.688-8.828,19.688-19.682   S317.804,368.648,306.948,368.648z M306.948,394.012c-3.117,0-5.653-2.549-5.653-5.682s2.536-5.682,5.653-5.682   c3.137,0,5.688,2.549,5.688,5.682S310.084,394.012,306.948,394.012z"></path><path d="M216.917,348.373c-10.856,0-19.689,8.829-19.689,19.682c0,10.854,8.833,19.682,19.689,19.682   c10.857,0,19.69-8.828,19.69-19.682C236.607,357.202,227.774,348.373,216.917,348.373z M216.917,373.736   c-3.137,0-5.689-2.549-5.689-5.682s2.552-5.682,5.689-5.682s5.69,2.549,5.69,5.682S220.054,373.736,216.917,373.736z"></path><path d="M254.952,384.51c-5.258,0-10.198,2.051-13.91,5.775c-3.704,3.716-5.744,8.654-5.743,13.904   c0,10.834,8.816,19.646,19.653,19.646c10.856,0,19.688-8.813,19.688-19.646C274.641,393.339,265.809,384.51,254.952,384.51z    M254.953,409.838c-3.117,0-5.653-2.531-5.653-5.646c-0.001-1.521,0.588-2.948,1.658-4.021c1.066-1.068,2.485-1.656,3.995-1.656   c3.137,0,5.688,2.549,5.688,5.68C260.641,407.305,258.089,409.838,254.953,409.838z"></path><path d="M485.995,437.667H342.416c11.674-4.546,23.263-10.27,34.622-17.12c0.055-0.033,0.109-0.064,0.164-0.099   c0.959-0.579,1.915-1.169,2.871-1.765c0.207-0.129,0.415-0.254,0.621-0.385c0.026-0.018,0.058-0.033,0.086-0.053   c0.056-0.035,0.107-0.072,0.165-0.105c1.872-1.178,3.731-2.388,5.585-3.623c0.192-0.132,0.392-0.259,0.587-0.39   c1.242-0.835,2.479-1.681,3.714-2.542c0.438-0.307,0.868-0.619,1.304-0.928c0.505-0.356,1.009-0.715,1.511-1.075   c1.394-1.002,2.773-2.019,4.146-3.048c0.859-0.646,1.711-1.301,2.562-1.954c0.443-0.343,0.884-0.688,1.322-1.033   c20.824-16.271,38.979-35.754,53.535-57.517c0.564-0.844,1.121-1.688,1.674-2.533c0.545-0.837,1.09-1.673,1.623-2.518   c0.946-1.489,1.873-2.989,2.782-4.498c0.144-0.236,0.297-0.471,0.438-0.709c0.075-0.127,0.146-0.254,0.222-0.381   c0.973-1.631,1.921-3.271,2.85-4.92c0.066-0.119,0.134-0.238,0.2-0.357c2.977-5.307,5.732-10.694,8.234-16.155   c0.083-0.183,0.146-0.367,0.212-0.554c10.221-22.538,16.32-46.149,17.839-69.398c2.268-34.75-5.284-68.552-22.443-100.465   c-17.686-32.894-37.048-48.884-59.189-48.884c-21.786,0-40.286,15.719-55.151,28.349c-6.335,5.382-14.982,12.73-18.276,12.908   c-0.889-0.581-6.761-5.42-13.536-34.86c-3.984-17.32-6.188-34.123-6.211-34.291c-0.463-3.565-3.575-6.219-7.144-6.096   l-44.062,1.272c-3.67,0.106-6.635,3.029-6.791,6.697c-0.109,2.556-2.523,63.02,11.483,98.513   c6.24,15.874,12.104,25.905,17.282,34.755c10.767,18.411,17.271,29.527,15.633,78.294c-0.261,3.27-0.659,6.272-1.175,9.049   c-0.056,0.3-0.117,0.589-0.175,0.884c-0.131,0.657-0.266,1.311-0.408,1.938c-0.027,0.117-0.054,0.234-0.081,0.354   c-2.496,10.617-6.938,17.385-12.451,21.651c-0.032,0.024-0.067,0.053-0.104,0.077c-0.243,0.188-0.495,0.359-0.744,0.539   c-6.192,4.32-14.438,6.332-25.131,6.332c-0.004,0-0.006,0-0.01,0c-16.372,0-35.722-4.612-56.206-9.498   c-3.41-0.813-6.839-1.629-10.272-2.428c-17.649-4.111-35.413-7.732-51.323-7.732c-28.798,0-46.877,11.982-55.271,36.638   c-4.143,12.179-4.687,43.464-4.701,78.226c-0.001,2.315,0,4.647,0.003,6.991c0.002,2.073,0.005,4.076,0.005,5.987   c0,0.478,0,0.949,0,1.415c0,2.548-0.006,4.909-0.02,7.043H26.003c-3.866,0-7,3.134-7,7s3.134,7,7,7h459.992c3.866,0,7-3.134,7-7   S489.861,437.667,485.995,437.667z M299.33,194.841c-4.92-8.412-10.495-17.946-16.342-32.819   c-10.381-26.301-10.891-69.875-10.676-86.277l31.18-0.9c1.02,6.667,2.889,17.808,5.559,29.398   c8.022,34.836,15.913,42.167,21.896,44.665c1.614,0.673,3.354,1.014,5.168,1.014c8.33,0,16.767-7.168,27.445-16.243   c13.118-11.146,29.444-25.018,46.088-25.018c16.282,0,32.05,13.967,46.859,41.514C482.761,199,484.6,252.751,462.356,303.986   c-57.224-0.854-106.261-7.07-145.942-18.498c0.166-1.422,0.316-2.862,0.433-4.346c0.01-0.104,0.016-0.207,0.02-0.312   C318.657,227.89,310.55,214.028,299.33,194.841z M146.837,437.667c-0.142-8.313-0.366-23.071,0.516-36.536   c1.102-16.811,3.392-23.195,4.587-25.454c1.139,0.952,3.152,3.056,6.083,7.612c16.052,24.955,36.26,43.229,59.802,54.378H146.837z    M305.982,433.652c-0.981,0.19-1.966,0.374-2.945,0.548c-0.145,0.022-0.285,0.05-0.429,0.074c-0.891,0.153-1.778,0.301-2.667,0.438   c-0.207,0.032-0.414,0.064-0.621,0.097c-0.827,0.126-1.653,0.244-2.479,0.356c-0.254,0.035-0.509,0.07-0.763,0.104   c-0.786,0.104-1.572,0.198-2.357,0.289c-0.279,0.032-0.56,0.065-0.84,0.099c-0.77,0.084-1.539,0.16-2.309,0.23   c-0.286,0.027-0.573,0.059-0.859,0.082c-0.773,0.068-1.549,0.127-2.322,0.186c-0.273,0.02-0.551,0.043-0.824,0.062   c-0.813,0.057-1.629,0.101-2.441,0.141c-0.229,0.012-0.458,0.024-0.688,0.035c-0.938,0.042-1.875,0.073-2.811,0.099   c-0.104,0.002-0.205,0.007-0.307,0.01c-1.055,0.023-2.105,0.036-3.155,0.036c-2.632,0-5.235-0.079-7.815-0.227   c-0.154-0.01-0.313-0.012-0.469-0.021c-0.291-0.018-0.576-0.046-0.867-0.065c-40.573-2.7-74.393-23.477-98.214-60.509   c-6.552-10.188-12.252-14.729-18.484-14.729c-1.4,0-3.22,0.257-5.136,1.207c-1.112,0.555-2.255,1.347-3.368,2.453   c-0.037,0.037-0.075,0.069-0.112,0.107c0,0.001,0,0.001,0,0.001c-7.641,7.772-10.524,28.632-9.88,71.789H98.823   c0-0.016,0-0.032,0-0.048c0.02-3.876,0.014-8.388,0.008-13.291c-0.003-2.413-0.006-4.979-0.006-7.656   c0-9.279,0.04-19.908,0.257-30.223c0.264-12.508,0.791-24.553,1.833-33.163c0.04-0.329,0.083-0.636,0.124-0.954   c0.044-0.344,0.087-0.697,0.134-1.029c0.447-3.19,0.978-5.808,1.608-7.66c6.395-18.771,19.357-27.145,42.03-27.145   c13.742,0,29.665,3.117,45.7,6.799c4.22,0.969,8.447,1.975,12.646,2.977c20.38,4.863,41.451,9.895,59.475,9.894   c0.002,0,0.007,0,0.011,0c6.854-0.001,13.037-0.746,18.58-2.221c0.006-0.003,0.012-0.005,0.02-0.007   c3.406-0.905,6.566-2.094,9.482-3.563c0.073-0.037,0.147-0.074,0.221-0.111c0.531-0.271,1.055-0.552,1.566-0.84   c0.078-0.046,0.156-0.091,0.235-0.136c2.79-1.597,5.338-3.474,7.646-5.633c0.017-0.015,0.03-0.028,0.047-0.043   c6.11-5.736,10.541-13.451,13.312-23.197c39.151,11.119,86.818,17.354,141.972,18.575c-0.092,0.176-0.188,0.35-0.279,0.523   c-0.646,1.221-1.308,2.438-1.979,3.651c-0.349,0.63-0.696,1.261-1.052,1.888c-0.657,1.159-1.331,2.318-2.014,3.478   c-31.992,54.026-88.346,95.217-144.28,106.217C306.072,433.635,306.027,433.644,305.982,433.652z"></path></g></svg>