<svg height='100px' width='100px'  fill="#FFFFFF" xmlns="http://www.w3.org/2000/svg" xmlns:xlink="http://www.w3.org/1999/xlink" version="1.1" x="0px" y="0px" viewBox="0 0 64 64" enable-background="new 0 0 64 64" xml:space="preserve"><g><g><g><path d="M63,53.76c-1.557,0-2.369,0.91-2.963,1.574c-0.548,0.612-0.839,0.907-1.473,0.907c-0.633,0-0.924-0.294-1.471-0.906     c-0.595-0.665-1.407-1.574-2.964-1.574c-1.556,0-2.368,0.91-2.962,1.574c-0.547,0.612-0.838,0.906-1.47,0.906     s-0.923-0.294-1.469-0.906c-0.593-0.665-1.405-1.574-2.96-1.574s-2.367,0.91-2.96,1.574c-0.546,0.612-0.837,0.906-1.468,0.906     s-0.922-0.294-1.468-0.906c-0.593-0.665-1.405-1.575-2.961-1.575c-1.555,0-2.367,0.91-2.96,1.574     c-0.546,0.612-0.837,0.906-1.469,0.906c-0.631,0-0.922-0.294-1.468-0.906c-0.593-0.665-1.405-1.575-2.961-1.575     c-1.555,0-2.367,0.91-2.96,1.575c-0.546,0.612-0.836,0.906-1.467,0.906s-0.921-0.294-1.467-0.906     c-0.593-0.664-1.404-1.574-2.958-1.574c-1.555,0-2.367,0.91-2.96,1.574c-0.546,0.612-0.837,0.906-1.468,0.906     c-0.629,0-0.919-0.294-1.465-0.905c-0.592-0.665-1.403-1.575-2.958-1.575s-2.366,0.91-2.959,1.575     c-0.546,0.612-0.836,0.906-1.467,0.906s-0.922-0.294-1.468-0.906C3.367,54.67,2.555,53.76,1,53.76c-0.553,0-1,0.448-1,1     s0.447,1,1,1c0.631,0,0.922,0.294,1.468,0.906c0.593,0.664,1.405,1.574,2.96,1.574s2.366-0.91,2.959-1.575     c0.546-0.612,0.836-0.906,1.467-0.906c0.63,0,0.92,0.294,1.466,0.906c0.592,0.665,1.403,1.575,2.957,1.575     c1.555,0,2.367-0.91,2.96-1.574c0.546-0.612,0.837-0.906,1.468-0.906c0.63,0,0.92,0.294,1.466,0.906     c0.593,0.665,1.404,1.575,2.959,1.575s2.366-0.91,2.959-1.574c0.546-0.612,0.837-0.906,1.468-0.906     c0.632,0,0.923,0.294,1.469,0.906c0.593,0.665,1.405,1.574,2.96,1.574c1.556,0,2.368-0.91,2.961-1.575     c0.546-0.612,0.837-0.906,1.468-0.906c0.632,0,0.923,0.294,1.469,0.906c0.593,0.665,1.405,1.574,2.96,1.574     s2.367-0.91,2.96-1.574c0.546-0.612,0.837-0.906,1.468-0.906s0.922,0.294,1.468,0.906c0.593,0.665,1.405,1.575,2.961,1.575     s2.368-0.91,2.962-1.574c0.547-0.612,0.838-0.906,1.47-0.906c0.634,0,0.925,0.294,1.473,0.907     c0.593,0.664,1.406,1.574,2.962,1.574c1.557,0,2.369-0.91,2.963-1.574c0.548-0.612,0.839-0.907,1.473-0.907c0.553,0,1-0.448,1-1     S63.553,53.76,63,53.76z"></path></g></g><g><g><circle cx="14" cy="16" r="3"></circle></g></g><g><g><path d="M63,45.76c-1.56,0-2.37,0.91-2.96,1.57c-0.55,0.62-0.84,0.91-1.48,0.91c-0.63,0-0.92-0.29-1.47-0.91     c-0.59-0.66-1.4-1.57-2.96-1.57c-0.11,0-0.21,0-0.31,0.01L63,32H48V22h-5v-5h5c0.369,0,0.708-0.203,0.882-0.528     s0.154-0.72-0.05-1.026L47.202,13l1.63-2.445c0.204-0.307,0.224-0.701,0.05-1.026S48.369,9,48,9h-6c-0.553,0-1,0.448-1,1v12h-3V8     h8c0.369,0,0.708-0.203,0.882-0.528s0.154-0.72-0.05-1.026L45.202,4l1.63-2.445c0.204-0.307,0.224-0.701,0.05-1.026     S46.369,0,46,0h-9c-0.553,0-1,0.448-1,1v21h-6v10H17v-6.586l9.707-9.707c0.391-0.391,0.391-1.023,0-1.414l-2-2     c-0.391-0.391-1.023-0.391-1.414,0l-4.359,4.359C18.611,19.099,16.534,21,14,21c-2.757,0-5-2.243-5-5     c0-0.107,0.025-0.206,0.031-0.311l-4.25-5.313c-0.178-0.222-0.442-0.358-0.726-0.374c-0.279-0.013-0.562,0.09-0.763,0.292l-2,2     c-0.356,0.356-0.392,0.923-0.082,1.321L8,22.343V32H1l9.18,13.78c-0.1-0.02-0.21-0.02-0.33-0.02c-1.55,0-2.36,0.91-2.96,1.57     c-0.54,0.62-0.83,0.91-1.46,0.91s-0.92-0.29-1.47-0.91C3.37,46.67,2.55,45.76,1,45.76c-0.55,0-1,0.45-1,1c0,0.55,0.45,1,1,1     c0.63,0,0.92,0.29,1.47,0.91c0.59,0.66,1.4,1.57,2.96,1.57c1.55,0,2.36-0.91,2.96-1.57c0.54-0.62,0.83-0.91,1.46-0.91     s0.92,0.29,1.47,0.91c0.59,0.66,1.4,1.57,2.96,1.57c1.55,0,2.36-0.91,2.96-1.57c0.54-0.62,0.83-0.91,1.46-0.91     s0.92,0.29,1.47,0.91c0.59,0.66,1.4,1.57,2.96,1.57c1.55,0,2.37-0.91,2.96-1.57c0.54-0.62,0.83-0.91,1.47-0.91     c0.63,0,0.92,0.29,1.46,0.91c0.6,0.66,1.41,1.57,2.96,1.57c1.56,0,2.37-0.91,2.97-1.57c0.54-0.62,0.83-0.91,1.46-0.91     c0.63,0,0.93,0.29,1.47,0.91c0.59,0.66,1.41,1.57,2.96,1.57c1.56,0,2.37-0.91,2.96-1.57c0.55-0.62,0.84-0.91,1.47-0.91     s0.92,0.29,1.47,0.91c0.59,0.66,1.4,1.57,2.96,1.57c1.55,0,2.37-0.91,2.96-1.57c0.55-0.62,0.84-0.91,1.47-0.91     s0.92,0.29,1.47,0.91c0.6,0.66,1.41,1.57,2.96,1.57c1.56,0,2.37-0.91,2.97-1.57c0.55-0.62,0.84-0.91,1.47-0.91c0.55,0,1-0.45,1-1     C64,46.21,63.55,45.76,63,45.76z M11,36H9c-0.553,0-1-0.448-1-1s0.447-1,1-1h2c0.553,0,1,0.448,1,1S11.553,36,11,36z M17,36h-2     c-0.553,0-1-0.448-1-1s0.447-1,1-1h2c0.553,0,1,0.448,1,1S17.553,36,17,36z M23,36h-2c-0.553,0-1-0.448-1-1s0.447-1,1-1h2     c0.553,0,1,0.448,1,1S23.553,36,23,36z M35,26h-2c-0.553,0-1-0.448-1-1s0.447-1,1-1h2c0.553,0,1,0.448,1,1S35.553,26,35,26z      M40,33h-1c-0.553,0-1-0.448-1-1s0.447-1,1-1h1c0.553,0,1,0.448,1,1S40.553,33,40,33z"></path></g></g></g></svg>