<svg height='100px' width='100px'  fill="#ffffff" xmlns="http://www.w3.org/2000/svg" data-name="Layer 1" viewBox="0 0 100 100" x="0px" y="0px"><title>01-01</title><path d="M50,30.12a6.81,6.81,0,1,0-6.81-6.81A6.82,6.82,0,0,0,50,30.12Zm0-9.63a2.81,2.81,0,1,1-2.81,2.81A2.82,2.82,0,0,1,50,20.5Z"></path><path d="M90.18,80.75H89V77.34a7,7,0,0,0-5.55-6.85V38h4.35A2,2,0,0,0,89,34.41L51.23,5a2,2,0,0,0-2.45,0L11,34.41A2,2,0,0,0,12.19,38h4.35v32.5A7,7,0,0,0,11,77.34v3.41H9.82a7.32,7.32,0,0,0,0,14.64H90.18a7.32,7.32,0,0,0,0-14.64ZM79.46,70.34H73V38h6.49ZM41.51,38H48V70.34H41.51Zm-4,32.35H31V38h6.49ZM52,38h6.49V70.34H52Zm10.49,0H69V70.34H62.49ZM50,9.14,82,34H18ZM27,38V70.34H20.54V38ZM15,77.34a3,3,0,0,1,3-3H82a3,3,0,0,1,3,3v3.41H15Zm75.2,14H9.82a3.32,3.32,0,0,1,0-6.64H90.18a3.32,3.32,0,0,1,0,6.64Z"></path></svg>