<svg height='100px' width='100px'  fill="#FFFFFF" xmlns="http://www.w3.org/2000/svg" xmlns:xlink="http://www.w3.org/1999/xlink" version="1.1" x="0px" y="0px" viewBox="0 0 100 100" style="enable-background:new 0 0 100 100;" xml:space="preserve"><path d="M10.715332,52.4892578l8.1274414,2.4126587v0.4262085c0,0.5522461,0.4477539,1,1,1h3.8423462l6.8344116,32.8754883  C30.6157227,89.6674805,31.0249023,90,31.4985352,90h18.7885742c0.3007812,0,0.5859375-0.1357422,0.7758789-0.3691406  s0.2646484-0.5395508,0.203125-0.8344727l-4.9630127-23.8735352h3.4952393c0.5522461,0,1-0.4477539,1-1V56.487793  c11.8793945,2.2358398,28.2871094,19.5068359,28.456543,19.6865234c0.1928711,0.2045898,0.4575195,0.3139648,0.7275391,0.3139648  c0.1240234,0,0.2495117-0.0229492,0.3691406-0.0708008c0.3808594-0.1513672,0.6308594-0.5195312,0.6308594-0.9291992V56.9821167  L89.25,54.8457031c0.4414062-0.1142578,0.75-0.512207,0.75-0.9682617V32.6108398c0-0.4560547-0.3085938-0.8540039-0.75-0.9682617  l-8.2675781-2.1364136V11c0-0.4311523-0.2763672-0.8139648-0.6860352-0.9492188  c-0.4101562-0.1352539-0.8588867,0.0063477-1.1166992,0.3530273C66.590332,27.3583984,50.7792969,30.0024414,49.7265625,30.1601562  L19.840332,30.237793c-0.5512695,0.0014648-0.9975586,0.4487305-0.9975586,1v0.3485718l-8.1274414,2.4126587  C10.2910156,34.125,10,34.5146484,10,34.9575195v16.5732422C10,51.9736328,10.2910156,52.3632812,10.715332,52.4892578z   M88,33.3852539v19.7177734l-7.0175781,1.8133545V31.5718994L88,33.3852539z M32.3120117,88l-6.5839844-31.671875h16.7456055  L49.0576172,88H32.3120117z M48.7983398,62.9228516h-2.9110107l-1.3709717-6.5947266h4.2819824V62.9228516z M78.9824219,13.9101562  v59.1308594c-4.6848145-4.6524658-17.8485107-16.8919067-28.2368164-18.5881348V32.0177002  C54.1620483,31.3794556,67.3939819,28.0818481,78.9824219,13.9101562z M20.8427734,32.2353516l27.902832-0.0724487V54.328125  h-5.4584961H24.4985352h-3.6557617V32.2353516z M12,35.7036133l6.8427734-2.03125V52.815918L12,50.784668V35.7036133z"></path></svg>