<svg height='100px' width='100px'  fill="#FFFFFF" xmlns="http://www.w3.org/2000/svg" xmlns:xlink="http://www.w3.org/1999/xlink" version="1.1" x="0px" y="0px" viewBox="0 0 64 64" style="enable-background:new 0 0 64 64;" xml:space="preserve"><path d="M62.5,63h-17c-0.276,0-0.5-0.224-0.5-0.5v-40c0-0.276,0.224-0.5,0.5-0.5h17c0.276,0,0.5,0.224,0.5,0.5v10  c0,0.276-0.224,0.5-0.5,0.5S62,32.776,62,32.5V23H46v39h16V45.5c0-0.276,0.224-0.5,0.5-0.5s0.5,0.224,0.5,0.5v17  C63,62.776,62.776,63,62.5,63z"></path><path d="M54,19c-4.963,0-9-4.038-9-9s4.037-9,9-9s9,4.038,9,9S58.963,19,54,19z M54,2c-4.411,0-8,3.589-8,8s3.589,8,8,8s8-3.589,8-8  S58.411,2,54,2z"></path><path d="M40.5,63h-17c-0.276,0-0.5-0.224-0.5-0.5v-29c0-0.276,0.224-0.5,0.5-0.5h17c0.276,0,0.5,0.224,0.5,0.5v29  C41,62.776,40.776,63,40.5,63z M24,62h16V34H24V62z"></path><path d="M18.5,63h-17C1.224,63,1,62.776,1,62.5v-17C1,45.224,1.224,45,1.5,45h17c0.276,0,0.5,0.224,0.5,0.5v17  C19,62.776,18.776,63,18.5,63z M2,62h16V46H2V62z"></path><path d="M50.5,10C49.673,10,49,9.327,49,8.5S49.673,7,50.5,7S52,7.673,52,8.5S51.327,10,50.5,10z M50.5,8C50.225,8,50,8.224,50,8.5  S50.225,9,50.5,9S51,8.776,51,8.5S50.775,8,50.5,8z"></path><path d="M57.5,10C56.673,10,56,9.327,56,8.5S56.673,7,57.5,7S59,7.673,59,8.5S58.327,10,57.5,10z M57.5,8C57.225,8,57,8.224,57,8.5  S57.225,9,57.5,9S58,8.776,58,8.5S57.775,8,57.5,8z"></path><path d="M32,30c-4.963,0-9-4.038-9-9s4.037-9,9-9s9,4.038,9,9S36.963,30,32,30z M32,13c-4.411,0-8,3.589-8,8s3.589,8,8,8  s8-3.589,8-8S36.411,13,32,13z"></path><path d="M28.5,21c-0.827,0-1.5-0.673-1.5-1.5s0.673-1.5,1.5-1.5s1.5,0.673,1.5,1.5S29.327,21,28.5,21z M28.5,19  c-0.275,0-0.5,0.224-0.5,0.5s0.225,0.5,0.5,0.5s0.5-0.224,0.5-0.5S28.775,19,28.5,19z"></path><path d="M35.5,21c-0.827,0-1.5-0.673-1.5-1.5s0.673-1.5,1.5-1.5s1.5,0.673,1.5,1.5S36.327,21,35.5,21z M35.5,19  c-0.275,0-0.5,0.224-0.5,0.5s0.225,0.5,0.5,0.5s0.5-0.224,0.5-0.5S35.775,19,35.5,19z"></path><path d="M10,42c-4.963,0-9-4.038-9-9s4.037-9,9-9s9,4.038,9,9S14.963,42,10,42z M10,25c-4.411,0-8,3.589-8,8s3.589,8,8,8  s8-3.589,8-8S14.411,25,10,25z"></path><path d="M6.5,33C5.673,33,5,32.327,5,31.5S5.673,30,6.5,30S8,30.673,8,31.5S7.327,33,6.5,33z M6.5,31C6.225,31,6,31.224,6,31.5  S6.225,32,6.5,32S7,31.776,7,31.5S6.775,31,6.5,31z"></path><path d="M13.5,33c-0.827,0-1.5-0.673-1.5-1.5s0.673-1.5,1.5-1.5s1.5,0.673,1.5,1.5S14.327,33,13.5,33z M13.5,31  c-0.275,0-0.5,0.224-0.5,0.5s0.225,0.5,0.5,0.5s0.5-0.224,0.5-0.5S13.775,31,13.5,31z"></path><path d="M35.5,25h-7c-0.276,0-0.5-0.224-0.5-0.5s0.224-0.5,0.5-0.5h7c0.276,0,0.5,0.224,0.5,0.5S35.776,25,35.5,25z"></path><path d="M62.5,41c-0.276,0-0.5-0.224-0.5-0.5v-5c0-0.276,0.224-0.5,0.5-0.5s0.5,0.224,0.5,0.5v5C63,40.776,62.776,41,62.5,41z"></path><path d="M54,15c-1.672,0-3.226-0.831-4.157-2.222c-0.154-0.229-0.093-0.54,0.137-0.694c0.23-0.155,0.541-0.092,0.693,0.137  C51.419,13.335,52.662,14,54,14s2.581-0.665,3.327-1.778c0.152-0.229,0.463-0.291,0.693-0.137c0.229,0.154,0.291,0.464,0.137,0.694  C57.226,14.169,55.672,15,54,15z"></path><path d="M13.742,38c-0.161,0-0.319-0.078-0.415-0.222C12.581,36.665,11.338,36,10,36s-2.581,0.665-3.327,1.778  c-0.152,0.229-0.463,0.291-0.693,0.137c-0.229-0.154-0.291-0.464-0.137-0.694C6.774,35.831,8.328,35,10,35s3.226,0.831,4.157,2.222  c0.154,0.229,0.093,0.54-0.137,0.694C13.935,37.973,13.838,38,13.742,38z"></path></svg>