<svg height='100px' width='100px'  fill="#FFFFFF" xmlns="http://www.w3.org/2000/svg" xmlns:xlink="http://www.w3.org/1999/xlink" version="1.1" x="0px" y="0px" viewBox="0 0 49 49" enable-background="new 0 0 49 49" xml:space="preserve"><g><path d="M39.177,18.947l-0.45,0.86l-0.19-0.05l0.06,0.18l-0.83,0.51l-0.13-0.13l-0.04,0.19l-0.97,0.03l-0.06-0.19l-0.12,0.14   l-0.86-0.46l0.05-0.18l-0.18,0.06l-0.29-0.47l-0.18,2.46c2.42,1.71,5.74,2.45,9.31,2.38l0.45-7.67l-5.67,2.25L39.177,18.947z"></path><path d="M5.627,6.827h2.69c0-0.31-0.01-0.65-0.01-1C6.631,4.3,8.48,1.312,10.497,2.657c2.026,0.198,1.697,0.296,2.62-0.14l0.1,0.36   c1.952-2.352-4.746-3.506-6.55-0.67c-0.698,0.349-1.273,1.249-1.25,2.26c-0.06,0.03-0.13,0.05-0.19,0.09   c-0.97,0.59-1.33,1.79-0.92,2.8C4.647,7.027,5.117,6.827,5.627,6.827z"></path><path d="M23.407,10.547c-0.07-0.03-0.12-0.01-0.17,0.02c-0.28,0.35-0.48,0.76-0.53,1.2c-0.01,0.12,0.05,0.22,0.17,0.24l0.92,0.33   l0.3-0.01l0.32-1.34l-0.37-0.29L23.407,10.547z"></path><path d="M43.837,24.777c-3.68,0-6.85-0.85-9.14-2.47l-0.1-0.08l-6,3.65c-1.42,0.86-1.51,2.88-0.17,3.86l6.969,4.84l-0.489,1.463   c-0.061,0.178-0.019,0.375,0.109,0.513c0.194,0.21,0.519,0.223,0.729,0.029l0.896-0.828l0.005,0.174l5.049,10.858l-1.355,0.733   c-0.166,0.088-0.27,0.261-0.271,0.449c-0.002,0.286,0.227,0.517,0.512,0.519l2.164,0.014l0.011-1.71l-0.493-0.003h0.492   l-2.06-11.35l3.24-10.66H43.837z M36.177,33.857L36.177,33.857l-3.74-5.25l3.96-1.08l0.202,6.787L36.177,33.857z"></path><path d="M36.777,17.247c0.01-0.01,0.02-0.02,0.03-0.02l0.37-0.22l-0.2-0.7L36.777,17.247z"></path><path d="M36.057,18.647l-0.76,0.78l1.04-0.33l-0.26,1.06l0.73-0.81l0.3,1.05l0.17-0.8c-0.578-0.158-1.356-1.893-0.6-2.3l-0.71-0.69   l0.33,1.04l-1.06-0.27l0.81,0.74l-1.05,0.3L36.057,18.647z"></path><polygon points="37.717,16.867 37.937,16.847 38.007,16.547  "></polygon><path d="M37.657,19.647l0.46,0.44l-0.17-0.54C37.825,19.601,37.79,19.63,37.657,19.647z"></path><polygon points="38.727,19.207 38.607,19.257 38.847,19.317  "></polygon><path d="M37.137,2.307c0.005-0.01,0.263-0.371,0.27-0.38l0.33,0.09c0.878,0,2.514-0.02,2.59-0.02l0.77,0.01   c0.027,0.622,0.04,0.99,0.04,0.99c1.637-0.271,2.208,2.107,0.99,3.14c-0.01,0.1-0.02,0.26-0.03,0.42   c2.866-2.003,1.732-5.757-1.66-6.03c-1-0.08-2.48,0.05-3.57-0.01C36.925,1.001,36.697,1.894,37.137,2.307z"></path><path d="M41.641,5.871c0.343-0.188,0.563-0.598,0.624-1.001c0.192-1.272-1-1.823-1.63-1.013c0-0.453,0.003-0.907-0.019-1.36   c-0.147-0.002-2.87,0.033-3,0c-0.36,0.5-0.57,1.13-0.58,1.82c-0.008,1.371,0.811,2.469,2.022,2.837   c-0.007,0.275-0.013,0.547,0.003,0.758c0.057,0.753,0.52,1.233,1.25,1.228c0.731-0.004,1.181-0.498,1.25-1.247   c0.026-0.283,0.017-0.678,0.017-1.042c0.003-0.002,0.006-0.003,0.008-0.004C41.601,6.52,41.622,6.196,41.641,5.871z"></path><path d="M36.867,17.837c0.051,0.456,0.389,1.509,0.79,1.29l0.89-0.39l0.06-0.06l-0.6-1.33l-0.47,0.03   C37.42,17.444,36.889,17.704,36.867,17.837z"></path><path d="M22.887,7.407l0.22-0.27l0.13-0.61c0.02-0.06,0.01-0.12-0.03-0.18c-0.31-0.32-0.66-0.56-1.05-0.66   c-0.09-0.02-0.19,0.03-0.23,0.13l-0.27,0.88l0.01,0.19L22.887,7.407z"></path><path d="M15.411,47.453l-1.467-0.806h-1.146V48.5h2.345c0.31,0,0.559-0.249,0.559-0.559C15.701,47.738,15.59,47.55,15.411,47.453z"></path><polygon points="15.357,24.357 4.247,24.357 5.667,46.647 6.817,46.647 9.807,27.597 12.797,46.647 13.957,46.647  "></polygon><path d="M8.279,47.453l-1.467-0.806H5.665V48.5H8.01c0.31,0,0.559-0.249,0.559-0.559C8.569,47.738,8.458,47.55,8.279,47.453z"></path><path d="M12.797,3.217c-0.451,0.213-1.956-0.021-2.492-0.075C8.751,1.841,7.283,4.59,8.801,5.577   c0.006,0.418,0.016,0.869,0.016,1.37c0.002,0,0.003,0,0.005,0.001v0.739C8.833,8.325,9.336,8.84,9.963,8.84   c0.638,0,1.153-0.526,1.153-1.153L11.11,6.812C12.504,6.172,13.204,4.641,12.797,3.217z"></path><path d="M12.607,18.097c0.33-0.3,0.59-0.64,0.71-1.02c0.02-0.1-0.02-0.2-0.13-0.24l-0.87-0.31h-0.16l-0.48,1.3l0.15,0.13l0.6,0.16   C12.487,18.137,12.547,18.137,12.607,18.097z"></path><path d="M18.935,12.201l-1.653-3.477c-0.406-0.855-1.269-1.4-2.216-1.4H14.28v0.003h-2.663v0.36c0,0.91-0.74,1.65-1.65,1.65   c-0.89,0-1.63-0.73-1.65-1.64v-0.37h-2.69c-0.1,0-0.19,0.01-0.29,0.03c-0.84,0.13-1.54,0.77-1.72,1.64l-0.92,4.52   c-0.25,1.22,0.36,1.9,1.09,2.37l0.43,0.269l7.01,1.466l0.464-1.282l-5.839-2.511l-0.42-0.275l0.245-0.347l6.56,2.82h0.17l0.95,0.34   c0.34,0.12,0.52,0.45,0.45,0.81c-0.15,0.48-0.44,0.9-0.86,1.29c-0.18,0.12-0.31,0.16-0.45,0.16h-0.08l-0.83-0.22l-0.31-0.27   l-7.06-1.47v7.19h11.17V12.825l2.229,2.419c0.77,0.836,2.152,0.558,2.539-0.511l2.493-6.885l-1.073-0.456L18.935,12.201z"></path><path d="M46.337,14.027l-0.25-5.03c-0.083-1.577-1.71-1.36-2.84-1.36v0.01h-1.18c0,0.1,0,0.2-0.01,0.29   c-0.09,1.03-0.78,1.7-1.74,1.7h-0.02c-0.97,0-1.66-0.66-1.73-1.69c-0.01-0.09-0.01-0.18-0.01-0.3h-1.69   c-0.53,0-1.04,0.19-1.43,0.54l-4.33,3.82l-6.24-0.76l-0.28,1.16l6.49,1.57c0.35,0.09,0.72,0.07,1.06-0.05l3.54-1.25l-0.32,4.22   l0.19,0.05l-0.06-0.18l0.83-0.52l0.13,0.14l0.04-0.19l0.97-0.03l0.05,0.19l0.13-0.15l0.81,0.43l3.8-2.7l0.151,0.503l-3.905,2.773   l0.514,1.138l6.567-2.604c0.495-0.196,0.81-0.686,0.784-1.218L46.337,14.027z"></path></g></svg>