<svg xmlns="http://www.w3.org/2000/svg" xmlns:xlink="http://www.w3.org/1999/xlink" width="100" height="100" viewBox="0 0 100 100"><rect width="100%" height="100%" fill="#ffffff"></rect><g transform="translate(50 50) scale(0.69 0.69) rotate(0) translate(-50 -50)" style="fill:#344a55"><svg fill="#344a55" xmlns:x="http://ns.adobe.com/Extensibility/1.0/" xmlns:i="http://ns.adobe.com/AdobeIllustrator/10.0/" xmlns:graph="http://ns.adobe.com/Graphs/1.0/" xmlns="http://www.w3.org/2000/svg" xmlns:xlink="http://www.w3.org/1999/xlink" version="1.1" x="0px" y="0px" viewBox="0 0 100 100" style="enable-background:new 0 0 100 100;" xml:space="preserve"><g><g i:extraneous="self"><g><path d="M5273.1,2400.1v-2c0-2.8-5-4-9.7-4s-9.7,1.3-9.7,4v2c0,1.8,0.7,3.6,2,4.9l5,4.9c0.3,0.3,0.4,0.6,0.4,1v6.4     c0,0.4,0.2,0.7,0.6,0.8l2.9,0.9c0.5,0.1,1-0.2,1-0.8v-7.2c0-0.4,0.2-0.7,0.4-1l5.1-5C5272.4,2403.7,5273.1,2401.9,5273.1,2400.1z      M5263.4,2400c-4.8,0-7.4-1.3-7.5-1.8v0c0.1-0.5,2.7-1.8,7.5-1.8c4.8,0,7.3,1.3,7.5,1.8C5270.7,2398.7,5268.2,2400,5263.4,2400z"></path><path d="M5268.4,2410.3c-0.6,0-1,0.4-1,1c0,0.6,0.4,1,1,1h4.3c0.6,0,1-0.4,1-1c0-0.6-0.4-1-1-1H5268.4z"></path><path d="M5272.7,2413.7h-4.3c-0.6,0-1,0.4-1,1c0,0.6,0.4,1,1,1h4.3c0.6,0,1-0.4,1-1C5273.7,2414.1,5273.3,2413.7,5272.7,2413.7z"></path><path d="M5272.7,2417h-4.3c-0.6,0-1,0.4-1,1c0,0.6,0.4,1,1,1h4.3c0.6,0,1-0.4,1-1C5273.7,2417.5,5273.3,2417,5272.7,2417z"></path></g><g><path d="M9.3,63l0.9,6.5c0.1,0.4,0,0.8-0.1,1.2L2.9,89.3c-0.9,2.4,0,5.3,2.2,6.5c0.4,0.3,0.9,0.4,1.4,0.5c2.3,0.5,4.8-0.7,5.7-3     l4.3-10.1l-1.1-12L9.3,63z"></path><path d="M40.3,39.4l-9.2-1.2c0,0-5.8-8.4-6.5-9.4c-0.6-0.9-1.8-2.9-3.3-3.8c-1.8-1.3-4.1-1.8-6.3-1.3c0,0,0,0,0,0     c-3,0.6-5.3,3.2-5.6,6.3L7.1,50.7c-0.1,1.3,0.2,2.5,1,3.5l10.7,14.6c0.5,0.7,0.8,1.4,0.9,2.3l1.9,20c0.2,2.6,1.8,5,4.4,5.4     c0.5,0.1,1,0.1,1.5,0c2.4-0.4,4.5-2.4,4.3-4.8l-1.1-23.8c0-0.7-0.2-1.3-0.5-1.9c0,0-6.5-12.3-6.9-13.1c-0.3-0.6-0.2-1.3-0.2-1.9     c0-0.6,0.6-8.9,0.6-8.9l1.7,2.4c0.7,1,1.7,1.6,2.9,1.8l11.3,1.5c0.4,0.1,0.8,0,1.2,0c2-0.3,3.5-1.9,3.6-4.1     C44.3,41.5,42.5,39.7,40.3,39.4z"></path><ellipse transform="matrix(0.9891 -0.1471 0.1471 0.9891 -1.6232 2.6874)" cx="17.4" cy="12.3" rx="9" ry="9"></ellipse><path d="M97,89.7L86.3,68.4c-0.3-0.6-0.7-1.1-1.3-1.5c0,0-11-8.6-11.6-9.1c-0.5-0.4-0.8-1.1-0.9-1.6c-0.2-0.5-3-8.4-3-8.4     l2.5,1.5c1,0.6,2.2,0.8,3.4,0.4l10.9-3.2c0.4-0.1,0.8-0.3,1.1-0.5c1.7-1.1,2.4-3.2,1.6-5.2c-0.8-2.1-3.2-3-5.4-2.4L74.8,41     c0,0-8.7-5.3-9.8-6c-1-0.6-2.8-1.9-4.5-2.2c-2.2-0.4-4.5,0-6.3,1.3c0,0,0,0,0,0c-2.5,1.8-3.5,5.1-2.6,8l6.3,20     c0.4,1.2,1.2,2.2,2.3,2.8l15.7,9c0.7,0.4,1.3,1,1.7,1.7l9.9,17.5c1.3,2.3,3.7,3.8,6.2,3.1c0.5-0.1,1-0.4,1.4-0.6     C97.1,94.6,98.2,91.8,97,89.7z"></path><ellipse transform="matrix(0.8438 -0.5366 0.5366 0.8438 -4.2924 31.3464)" cx="51.7" cy="23" rx="9" ry="9"></ellipse><path d="M72.6,29.1c-0.7,0.9-0.6,2.2,0.3,2.9c0.4,0.3,0.9,0.5,1.3,0.5c0.6,0,1.2-0.3,1.6-0.7c3.4-4.1,10.2-6.9,17.8-7.4     c0.5,0,1-0.1,1.5,0c1.2,0.1,2.1-0.8,2.2-1.9c0.1-1.1-0.8-2.1-1.9-2.2c-0.7-0.1-1.4,0-2.1,0C84.5,20.8,76.8,24.2,72.6,29.1z"></path><path d="M69.3,25.3c0.6,0,1.2-0.3,1.7-0.8c3.2-4.2,9.9-7.3,17.4-8.2c0.5-0.1,1-0.1,1.5-0.1c1.2,0.1,2.1-0.9,2.1-2     c0-1.1-0.9-2.1-2-2.1c-0.7,0-1.4,0.1-2.1,0.1c-8.7,1-16.3,4.6-20.2,9.8c-0.7,0.9-0.5,2.2,0.4,2.9C68.5,25.2,68.9,25.3,69.3,25.3z     "></path></g></g></g></svg></g></svg>