<svg height='100px' width='100px'   fill="#000000" xmlns:dc="http://purl.org/dc/elements/1.1/" xmlns:cc="http://creativecommons.org/ns#" xmlns:rdf="http://www.w3.org/1999/02/22-rdf-syntax-ns#" xmlns:svg="http://www.w3.org/2000/svg" xmlns="http://www.w3.org/2000/svg" xmlns:sodipodi="http://sodipodi.sourceforge.net/DTD/sodipodi-0.dtd" xmlns:inkscape="http://www.inkscape.org/namespaces/inkscape" version="1.1" x="0px" y="0px" viewBox="0 0 100 100"><g transform="translate(0,-952.36218)"><path style="font-size:medium;font-style:normal;font-variant:normal;font-weight:normal;font-stretch:normal;text-indent:0;text-align:start;text-decoration:none;line-height:normal;letter-spacing:normal;word-spacing:normal;text-transform:none;direction:ltr;block-progression:tb;writing-mode:lr-tb;text-anchor:start;baseline-shift:baseline;opacity:1;color:#000000;fill:#00000;fill-opacity:1;stroke:none;stroke-width:2;marker:none;visibility:visible;display:inline;overflow:visible;enable-background:accumulate;font-family:Sans;-inkscape-font-specification:Sans" d="M 39.4375 7 A 0.99983137 1.0003686 0 0 0 39.03125 7.125 L 31.40625 11.5 L 22.71875 10.21875 A 0.99983137 1.0003686 0 0 0 21.59375 11.40625 L 23.375 20.03125 L 19.46875 27.875 A 0.99983137 1.0003686 0 0 0 20.25 29.34375 L 29 30.28125 L 35.28125 36.4375 A 0.99983137 1.0003686 0 0 0 36.875 36.125 L 40.5 28.125 L 48.28125 24.03125 A 0.99983137 1.0003686 0 0 0 48.5 22.40625 L 41.96875 16.5 L 40.53125 7.84375 A 0.99983137 1.0003686 0 0 0 39.53125 7 A 0.99983137 1.0003686 0 0 0 39.4375 7 z M 38.78125 9.5625 L 40.0625 17.1875 A 0.99983137 1.0003686 0 0 0 40.375 17.75 L 46.09375 22.9375 L 39.25 26.5 A 0.99983137 1.0003686 0 0 0 38.78125 26.96875 L 35.65625 34 L 30.15625 28.59375 A 0.99983137 1.0003686 0 0 0 29.5625 28.3125 L 21.90625 27.5 L 25.34375 20.59375 A 0.99983137 1.0003686 0 0 0 25.4375 19.9375 L 23.84375 12.40625 L 31.4375 13.53125 A 0.99983137 1.0003686 0 0 0 32.09375 13.40625 L 38.78125 9.5625 z M 66.125 29.28125 A 0.99960657 1.0005938 0 0 0 66.03125 29.3125 A 0.99960657 1.0005938 0 0 0 65.625 29.4375 L 60.09375 32.59375 L 53.8125 31.65625 A 0.99960657 1.0005938 0 0 0 52.6875 32.84375 L 54 39.09375 L 51.15625 44.75 A 0.99960657 1.0005938 0 0 0 51.96875 46.21875 L 58.25 46.875 L 62.78125 51.34375 A 0.99960657 1.0005938 0 0 0 64.40625 51.03125 L 67 45.25 L 72.625 42.3125 A 0.99960657 1.0005938 0 0 0 72.84375 40.6875 L 68.15625 36.40625 L 67.09375 30.125 A 0.99960657 1.0005938 0 0 0 66.125 29.28125 z M 65.34375 31.875 L 66.21875 37.09375 A 0.99960657 1.0005938 0 0 0 66.5625 37.65625 L 70.4375 41.1875 L 65.78125 43.625 A 0.99960657 1.0005938 0 0 0 65.34375 44.09375 L 63.1875 48.90625 L 59.40625 45.21875 A 0.99960657 1.0005938 0 0 0 58.8125 44.9375 L 53.59375 44.375 L 55.9375 39.65625 A 0.99960657 1.0005938 0 0 0 56.03125 39 L 54.9375 33.84375 L 60.15625 34.625 A 0.99960657 1.0005938 0 0 0 60.78125 34.5 L 65.34375 31.875 z M 87.1875 47.28125 C 85.901614 47.28125 84.723698 47.84135 83.875 48.71875 C 83.8649 48.72875 83.85376 48.74 83.84375 48.75 C 83.81378 48.78 81.076575 51.4899 78.125 54.4375 C 75.157253 57.4012 72.042127 60.53415 71.1875 61.46875 A 1.0001 1.0001 0 1 0 72.65625 62.8125 C 73.363205 62.0394 76.566451 58.80455 79.53125 55.84375 C 82.496049 52.88285 85.28125 50.125 85.28125 50.125 A 1.0001 1.0001 0 0 0 85.3125 50.125 C 85.826674 49.584 86.466374 49.28125 87.1875 49.28125 C 88.689592 49.28125 90 50.65895 90 52.53125 C 90 53.35325 89.730311 54.09295 89.3125 54.65625 C 89.27805 54.69725 77.257664 69.14755 69.5 78.21875 C 67.276909 80.81825 64.078284 83.53125 59.53125 83.53125 L 35.8125 83.53125 C 33.36133 83.53125 31.064979 83.9433 29.21875 85.75 L 23.5625 91.28125 A 1.0001 1.0001 0 1 0 24.96875 92.6875 L 30.59375 87.15625 C 31.969747 85.80975 33.562056 85.53125 35.8125 85.53125 L 59.53125 85.53125 C 64.875734 85.53125 68.633521 82.3038 71.03125 79.5 C 78.817717 70.3951 90.90625 55.90625 90.90625 55.90625 A 1.0001 1.0001 0 0 0 90.9375 55.84375 C 91.614903 54.93025 92 53.77775 92 52.53125 C 92 49.69245 89.898124 47.28125 87.1875 47.28125 z M 34.4375 62.1875 C 30.286081 62.1875 26.176387 62.75395 22.9375 65.40625 L 8.375 77.34375 A 1.0004491 1.0004491 0 0 0 9.625 78.90625 L 24.21875 66.96875 C 26.920281 64.75645 30.470181 64.1875 34.4375 64.1875 L 64.5625 64.1875 C 65.395023 65.5866 65.30953 67.41945 64.4375 69.03125 C 63.494652 70.77405 61.851826 71.937 60.59375 71.8125 A 1.0001 1.0001 0 0 0 60.5 71.78125 L 41.40625 71.78125 A 1.0001 1.0001 0 1 0 41.40625 73.78125 L 60.375 73.78125 L 60.5 73.78125 C 62.892999 73.94915 64.998734 72.16595 66.1875 69.96875 C 67.397329 67.73255 67.727293 64.81345 66.03125 62.59375 A 1.0001 1.0001 0 0 0 65.25 62.1875 L 34.4375 62.1875 z " transform="translate(0,952.36218)"></path></g></svg>