<svg height='100px' width='100px'  fill="#FFFFFF" xmlns="http://www.w3.org/2000/svg" data-name="Layer 1" viewBox="0 0 64 64" x="0px" y="0px"><title>well-being-healthy-good-happy-blissful</title><path d="M23,48a5.006,5.006,0,0,0-5,5h2a3,3,0,0,1,6,0h2A5.006,5.006,0,0,0,23,48Z"></path><path d="M41,48a5.006,5.006,0,0,0-5,5h2a3,3,0,0,1,6,0h2A5.006,5.006,0,0,0,41,48Z"></path><path d="M23.005,39.1,25,38.9C23.817,26.985,14.791,18,4,18v2C13.758,20,21.929,28.211,23.005,39.1Z"></path><path d="M60,18c-10.791,0-19.817,8.985-20.995,20.9l1.99.2C42.071,28.211,50.242,20,60,20Z"></path><path d="M32,40C18.215,40,7,49.421,7,61a1,1,0,0,0,1,1H56a1,1,0,0,0,1-1C57,49.421,45.785,40,32,40ZM9.031,60C9.664,49.986,19.725,42,32,42s22.336,7.986,22.969,18Z"></path><path d="M55,2a7,7,0,1,0,7,7A7.009,7.009,0,0,0,55,2Zm0,12a5,5,0,1,1,5-5A5.006,5.006,0,0,1,55,14Z"></path><path d="M53.145,7.25a.5.5,0,0,1,.5.5h1a1.5,1.5,0,0,0-3,0h1A.5.5,0,0,1,53.145,7.25Z"></path><path d="M57.145,6.25a1.5,1.5,0,0,0-1.5,1.5h1a.5.5,0,0,1,1,0h1A1.5,1.5,0,0,0,57.145,6.25Z"></path><path d="M55.145,11.25a1.5,1.5,0,0,1-1.5-1.5h-1a2.5,2.5,0,1,0,5,0h-1A1.5,1.5,0,0,1,55.145,11.25Z"></path><path d="M9.266,16.679a1,1,0,0,0,1.468,0l6.15-6.649a4.338,4.338,0,0,0,0-5.791A3.764,3.764,0,0,0,14.1,3h0a3.771,3.771,0,0,0-2.786,1.239L10,5.662,8.684,4.238A3.77,3.77,0,0,0,5.9,3h0A3.764,3.764,0,0,0,3.115,4.239a4.338,4.338,0,0,0,0,5.79ZM4.584,5.6a1.749,1.749,0,0,1,2.632,0l2.05,2.216a1.028,1.028,0,0,0,1.468,0L12.783,5.6a1.749,1.749,0,0,1,2.633,0,2.3,2.3,0,0,1,0,3.075L10,14.527,4.583,8.671A2.3,2.3,0,0,1,4.584,5.6Z"></path><path d="M42.546,19.762l-2.454-1.6a1,1,0,0,0-1.393.306l-3.062,4.866a4,4,0,0,0-7.274,0L25.3,18.468a1,1,0,0,0-1.393-.306l-2.454,1.6a1,1,0,0,0-.3,1.37L27,30.426a.857.857,0,0,0,.014.112l1,5.637A1,1,0,0,0,29,37h6a1,1,0,0,0,.984-.825l1-5.637A.857.857,0,0,0,37,30.426l5.849-9.294A1,1,0,0,0,42.546,19.762Zm-7.412,9.871a1,1,0,0,0-.152.59c0,.016.006.056.011.09L34.162,35H29.838l-.83-4.678c.005-.04.009-.084.01-.1a1,1,0,0,0-.152-.59L23.37,20.9l.779-.507,4.762,7.565a1,1,0,0,0,1.328.344l.115-.066a.982.982,0,0,1,.089-.049,1,1,0,0,0,.262-1.679A1.969,1.969,0,0,1,30,25a2,2,0,0,1,4,0,1.969,1.969,0,0,1-.7,1.508,1,1,0,0,0-.327.9,1.018,1.018,0,0,0,.588.774c.031.014.06.033.09.05l.115.066a1,1,0,0,0,1.328-.344l4.762-7.565.779.507Z"></path><rect x="56.967" y="36" width="2" height="2" transform="translate(-0.571 0.91) rotate(-0.895)"></rect><rect x="57.033" y="40" width="2" height="2" transform="translate(-0.653 0.94) rotate(-0.923)"></rect><rect x="59" y="37.967" width="2" height="2" transform="translate(-0.601 0.942) rotate(-0.895)"></rect><rect x="55" y="38.033" width="2" height="2" transform="translate(-0.603 0.88) rotate(-0.895)"></rect><rect x="4.967" y="32" width="2" height="2" transform="translate(-0.515 0.097) rotate(-0.895)"></rect><rect x="5.033" y="36" width="2" height="2" transform="translate(-0.577 0.099) rotate(-0.895)"></rect><rect x="7" y="33.967" width="2" height="2" transform="translate(-0.562 0.133) rotate(-0.923)"></rect><rect x="3" y="34.033" width="2" height="2" transform="translate(-0.547 0.067) rotate(-0.895)"></rect><path d="M39.959,6a13.165,13.165,0,0,0-4.34.807,13.543,13.543,0,0,0-2.876-4.477A1,1,0,0,0,32.006,2H32a1,1,0,0,0-.735.322,13,13,0,0,0-2.907,4.49A13.684,13.684,0,0,0,24.052,6,1,1,0,0,0,23,7.041c.247,6.043,2.84,8.639,8.947,8.958h.093c6.043-.247,8.639-2.84,8.958-8.947a1,1,0,0,0-.288-.755A.961.961,0,0,0,39.959,6ZM31.992,4.526a8.236,8.236,0,0,1,1.961,3.805c0,.021,0,.041,0,.063.223,1.576-.382,3.17-1.945,5.076-1.557-1.931-2.167-3.525-1.965-5.074a.9.9,0,0,0,0-.1A7.921,7.921,0,0,1,31.992,4.526ZM25.076,8.089a9.173,9.173,0,0,1,2.913.738,6.686,6.686,0,0,0,.379,2.322c.01.031.018.062.029.093.045.128.1.256.15.385s.114.271.178.407c.044.095.088.19.136.285.113.222.235.446.371.673.012.02.021.04.034.06.134.222.278.447.435.674C26.691,13.111,25.418,11.5,25.076,8.089ZM34.3,13.747c.019-.028.035-.055.054-.082a7.976,7.976,0,0,0,1.649-4.854,8.987,8.987,0,0,1,2.907-.731C38.535,11.535,37.267,13.156,34.3,13.747Z"></path></svg>